# MagicaVoxel @ Ephtracy

# group
o 

# material
mtllib dog.mtl
usemtl palette

# normals
vn -1 0 0
vn 1 0 0
vn 0 0 1
vn 0 0 -1
vn 0 -1 0
vn 0 1 0

# texcoords
vt 0.787109 0.5
vt 0.791016 0.5
vt 0.794922 0.5
vt 0.798828 0.5
vt 0.802734 0.5
vt 0.994141 0.5

# verts
v -0.3 0 0.4
v -0.3 0 0.2
v -0.3 0 -0.1
v -0.3 0 -0.3
v -0.3 0.1 0.4
v -0.3 0.1 0.3
v -0.3 0.1 -0.2
v -0.3 0.1 -0.3
v -0.3 0.2 0.3
v -0.3 0.2 0.2
v -0.3 0.2 -0.1
v -0.3 0.2 -0.2
v -0.3 0.3 0.2
v -0.3 0.3 -0.1
v -0.3 0.3 -0.2
v -0.3 0.3 -0.3
v -0.3 0.4 -0.2
v -0.3 0.4 -0.3
v -0.3 0.6 0.6
v -0.3 0.6 0.4
v -0.3 0.6 0.3
v -0.3 0.6 0.0999999
v -0.3 0.6 -0.3
v -0.3 0.7 0.6
v -0.3 0.7 0.5
v -0.3 0.7 0.3
v -0.3 0.7 0.2
v -0.3 0.8 0.6
v -0.3 0.8 0.5
v -0.3 0.8 0.4
v -0.3 0.8 0.2
v -0.3 0.9 0.5
v -0.3 0.9 0.4
v -0.3 1 0.5
v -0.3 1 0.2
v -0.3 1 0.0999999
v -0.3 1.1 0.2
v -0.3 1.1 0.0999999
v -0.1 0.6 -0.2
v -0.1 0.6 -0.3
v -0.1 0.7 -0.2
v -0.1 0.7 -0.3
v -0.1 0.8 -0.1
v -0.1 0.8 -0.2
v -0.1 0.8 -0.3
v -0.1 0.9 -0.1
v -0.1 0.9 -0.2
v -0.1 0.9 -0.3
v 2.98023e-08 0 0.4
v 2.98023e-08 0 0.2
v 2.98023e-08 0 -0.1
v 2.98023e-08 0 -0.3
v 2.98023e-08 0.2 0.4
v 2.98023e-08 0.2 0.3
v 2.98023e-08 0.2 0.2
v 2.98023e-08 0.2 -0.1
v 2.98023e-08 0.2 -0.3
v 2.98023e-08 1 0.2
v 2.98023e-08 1 0.0999999
v 2.98023e-08 1.1 0.2
v 2.98023e-08 1.1 0.0999999
v -0.1 0 0.4
v -0.1 0 0.2
v -0.1 0 -0.1
v -0.1 0 -0.3
v -0.1 0.2 0.4
v -0.1 0.2 0.3
v -0.1 0.2 0.2
v -0.1 0.2 -0.1
v -0.1 0.2 -0.3
v -0.1 1 0.2
v -0.1 1 0.0999999
v -0.1 1.1 0.2
v -0.1 1.1 0.0999999
v 2.98023e-08 0.6 -0.2
v 2.98023e-08 0.6 -0.3
v 2.98023e-08 0.7 -0.2
v 2.98023e-08 0.7 -0.3
v 2.98023e-08 0.8 -0.1
v 2.98023e-08 0.8 -0.2
v 2.98023e-08 0.8 -0.3
v 2.98023e-08 0.9 -0.1
v 2.98023e-08 0.9 -0.2
v 2.98023e-08 0.9 -0.3
v 0.2 0 0.4
v 0.2 0 0.2
v 0.2 0 -0.1
v 0.2 0 -0.3
v 0.2 0.1 0.4
v 0.2 0.1 0.3
v 0.2 0.1 -0.2
v 0.2 0.1 -0.3
v 0.2 0.2 0.3
v 0.2 0.2 0.2
v 0.2 0.2 -0.1
v 0.2 0.2 -0.2
v 0.2 0.3 0.2
v 0.2 0.3 -0.1
v 0.2 0.4 -5.96046e-08
v 0.2 0.4 -0.2
v 0.2 0.5 -5.96046e-08
v 0.2 0.5 -0.2
v 0.2 0.5 -0.3
v 0.2 0.6 0.6
v 0.2 0.6 0.4
v 0.2 0.6 0.0999999
v 0.2 0.6 -0.2
v 0.2 0.6 -0.3
v 0.2 0.7 0.4
v 0.2 0.7 0.3
v 0.2 0.8 0.6
v 0.2 0.8 0.5
v 0.2 0.8 0.4
v 0.2 0.8 0.3
v 0.2 0.9 0.5
v 0.2 0.9 0.4
v 0.2 1 0.5
v 0.2 1 0.2
v 0.2 1 0.0999999
v 0.2 1.1 0.2
v 0.2 1.1 0.0999999
v -0.3 0.6 0.6
v -0.3 0.7 0.6
v -0.3 0.8 0.6
v -0.2 0.7 0.6
v -0.2 0.8 0.6
v -0.1 0.7 0.6
v -0.1 0.8 0.6
v 2.98023e-08 0.7 0.6
v 2.98023e-08 0.8 0.6
v 0.2 0.6 0.6
v 0.2 0.8 0.6
v -0.3 0.8 0.5
v -0.3 0.9 0.5
v -0.3 1 0.5
v -0.2 0.8 0.5
v -0.2 0.9 0.5
v -0.1 0.8 0.5
v 2.98023e-08 0.8 0.5
v 2.98023e-08 0.9 0.5
v 2.98023e-08 1 0.5
v 0.1 0.8 0.5
v 0.1 0.9 0.5
v 0.1 1 0.5
v 0.2 0.8 0.5
v 0.2 0.9 0.5
v 0.2 1 0.5
v -0.3 0 0.4
v -0.3 0.1 0.4
v -0.3 0.6 0.4
v -0.2 0.1 0.4
v -0.2 0.2 0.4
v -0.2 0.6 0.4
v -0.1 0 0.4
v -0.1 0.2 0.4
v 2.98023e-08 0 0.4
v 2.98023e-08 0.2 0.4
v 2.98023e-08 0.3 0.4
v 2.98023e-08 0.5 0.4
v 0.1 0.1 0.4
v 0.1 0.2 0.4
v 0.1 0.3 0.4
v 0.1 0.5 0.4
v 0.1 0.6 0.4
v 0.2 0 0.4
v 0.2 0.1 0.4
v 0.2 0.6 0.4
v -0.3 1 0.2
v -0.3 1.1 0.2
v -0.2 1 0.2
v -0.2 1.1 0.2
v -0.1 1 0.2
v -0.1 1.1 0.2
v 2.98023e-08 1 0.2
v 2.98023e-08 1.1 0.2
v 0.1 1 0.2
v 0.1 1.1 0.2
v 0.2 1 0.2
v 0.2 1.1 0.2
v -0.3 0 -0.1
v -0.3 0.2 -0.1
v -0.2 0.2 -0.1
v -0.1 0 -0.1
v -0.1 0.2 -0.1
v -0.1 0.8 -0.1
v -0.1 0.9 -0.1
v 2.98023e-08 0 -0.1
v 2.98023e-08 0.2 -0.1
v 2.98023e-08 0.8 -0.1
v 2.98023e-08 0.9 -0.1
v 0.1 0.2 -0.1
v 0.2 0 -0.1
v 0.2 0.2 -0.1
v -0.1 0.6 -0.2
v -0.1 0.7 -0.2
v -0.1 0.8 -0.2
v 2.98023e-08 0.6 -0.2
v 2.98023e-08 0.7 -0.2
v 2.98023e-08 0.8 -0.2
v -0.3 0 0.2
v -0.3 0.2 0.2
v -0.2 0.2 0.2
v -0.1 0 0.2
v -0.1 0.2 0.2
v 2.98023e-08 0 0.2
v 2.98023e-08 0.2 0.2
v 0.1 0.2 0.2
v 0.2 0 0.2
v 0.2 0.2 0.2
v -0.3 0.6 0.0999999
v -0.3 1 0.0999999
v -0.3 1.1 0.0999999
v -0.2 0.7 0.0999999
v -0.2 0.8 0.0999999
v -0.2 1 0.0999999
v -0.2 1.1 0.0999999
v -0.1 0.7 0.0999999
v -0.1 0.8 0.0999999
v -0.1 0.9 0.0999999
v -0.1 1 0.0999999
v -0.1 1.1 0.0999999
v 2.98023e-08 1 0.0999999
v 2.98023e-08 1.1 0.0999999
v 0.1 0.8 0.0999999
v 0.1 0.9 0.0999999
v 0.1 1 0.0999999
v 0.1 1.1 0.0999999
v 0.2 0.6 0.0999999
v 0.2 1 0.0999999
v 0.2 1.1 0.0999999
v -0.3 0 -0.3
v -0.3 0.1 -0.3
v -0.3 0.3 -0.3
v -0.3 0.4 -0.3
v -0.3 0.6 -0.3
v -0.2 0.1 -0.3
v -0.2 0.2 -0.3
v -0.1 0 -0.3
v -0.1 0.2 -0.3
v -0.1 0.3 -0.3
v -0.1 0.4 -0.3
v -0.1 0.5 -0.3
v -0.1 0.6 -0.3
v -0.1 0.7 -0.3
v -0.1 0.8 -0.3
v -0.1 0.9 -0.3
v 2.98023e-08 0 -0.3
v 2.98023e-08 0.2 -0.3
v 2.98023e-08 0.4 -0.3
v 2.98023e-08 0.5 -0.3
v 2.98023e-08 0.6 -0.3
v 2.98023e-08 0.7 -0.3
v 2.98023e-08 0.8 -0.3
v 2.98023e-08 0.9 -0.3
v 0.1 0.1 -0.3
v 0.1 0.2 -0.3
v 0.1 0.5 -0.3
v 0.1 0.6 -0.3
v 0.2 0 -0.3
v 0.2 0.1 -0.3
v 0.2 0.5 -0.3
v 0.2 0.6 -0.3
v -0.3 0 0.4
v -0.1 0 0.4
v 2.98023e-08 0 0.4
v 0.2 0 0.4
v -0.3 0 0.2
v -0.1 0 0.2
v 2.98023e-08 0 0.2
v 0.2 0 0.2
v -0.3 0 -0.1
v -0.1 0 -0.1
v 2.98023e-08 0 -0.1
v 0.2 0 -0.1
v -0.3 0 -0.3
v -0.1 0 -0.3
v 2.98023e-08 0 -0.3
v 0.2 0 -0.3
v -0.1 0.2 0.4
v 2.98023e-08 0.2 0.4
v -0.1 0.2 0.3
v 2.98023e-08 0.2 0.3
v -0.3 0.2 0.2
v -0.2 0.2 0.2
v -0.1 0.2 0.2
v 2.98023e-08 0.2 0.2
v 0.1 0.2 0.2
v 0.2 0.2 0.2
v -0.3 0.2 -0.1
v -0.2 0.2 -0.1
v -0.1 0.2 -0.1
v 2.98023e-08 0.2 -0.1
v 0.1 0.2 -0.1
v 0.2 0.2 -0.1
v -0.1 0.2 -0.3
v 2.98023e-08 0.2 -0.3
v -0.3 0.6 0.6
v 0.2 0.6 0.6
v -0.2 0.6 0.5
v 0.1 0.6 0.5
v -0.3 0.6 0.4
v -0.2 0.6 0.4
v 0.1 0.6 0.4
v 0.2 0.6 0.4
v -0.1 0.8 -0.1
v 2.98023e-08 0.8 -0.1
v -0.1 0.8 -0.2
v 2.98023e-08 0.8 -0.2
v -0.3 0.6 0.0999999
v 0.2 0.6 0.0999999
v -0.1 0.6 -0.2
v 2.98023e-08 0.6 -0.2
v 0.1 0.6 -0.2
v 0.2 0.6 -0.2
v -0.3 0.6 -0.3
v -0.1 0.6 -0.3
v 2.98023e-08 0.6 -0.3
v 0.1 0.6 -0.3
v 0.2 0.6 -0.3
v -0.3 0.8 0.6
v -0.2 0.8 0.6
v -0.1 0.8 0.6
v 2.98023e-08 0.8 0.6
v 0.2 0.8 0.6
v -0.3 0.8 0.5
v -0.2 0.8 0.5
v -0.1 0.8 0.5
v 2.98023e-08 0.8 0.5
v 0.1 0.8 0.5
v 0.2 0.8 0.5
v -0.1 0.9 -0.1
v 2.98023e-08 0.9 -0.1
v -0.1 0.9 -0.2
v 2.98023e-08 0.9 -0.2
v -0.1 0.9 -0.3
v 2.98023e-08 0.9 -0.3
v -0.3 1 0.5
v 2.98023e-08 1 0.5
v 0.1 1 0.5
v 0.2 1 0.5
v -0.1 1 0.4
v 2.98023e-08 1 0.4
v 0.1 1 0.4
v -0.1 1 0.3
v 2.98023e-08 1 0.3
v -0.3 1 0.2
v -0.2 1 0.2
v -0.1 1 0.2
v 2.98023e-08 1 0.2
v 0.1 1 0.2
v 0.2 1 0.2
v -0.1 1 0.0999999
v 2.98023e-08 1 0.0999999
v -0.3 1.1 0.2
v -0.2 1.1 0.2
v -0.1 1.1 0.2
v 2.98023e-08 1.1 0.2
v 0.1 1.1 0.2
v 0.2 1.1 0.2
v -0.3 1.1 0.0999999
v -0.2 1.1 0.0999999
v -0.1 1.1 0.0999999
v 2.98023e-08 1.1 0.0999999
v 0.1 1.1 0.0999999
v 0.2 1.1 0.0999999

# faces
f 5/2/1 2/2/1 1/2/1
f 6/2/1 2/2/1 5/2/1
f 7/2/1 4/2/1 3/2/1
f 8/2/1 4/2/1 7/2/1
f 9/2/1 2/2/1 6/2/1
f 9/3/1 6/3/1 5/3/1
f 10/2/1 2/2/1 9/2/1
f 11/2/1 7/2/1 3/2/1
f 12/3/1 8/3/1 7/3/1
f 12/2/1 7/2/1 11/2/1
f 13/4/1 11/4/1 10/4/1
f 13/3/1 10/3/1 9/3/1
f 14/3/1 12/3/1 11/3/1
f 14/4/1 11/4/1 13/4/1
f 15/3/1 8/3/1 12/3/1
f 15/3/1 12/3/1 14/3/1
f 16/3/1 8/3/1 15/3/1
f 17/3/1 14/3/1 13/3/1
f 17/3/1 15/3/1 14/3/1
f 17/5/1 16/5/1 15/5/1
f 18/5/1 16/5/1 17/5/1
f 20/3/1 13/3/1 9/3/1
f 20/3/1 9/3/1 5/3/1
f 20/3/1 18/3/1 17/3/1
f 20/3/1 17/3/1 13/3/1
f 21/3/1 18/3/1 20/3/1
f 22/3/1 18/3/1 21/3/1
f 23/3/1 18/3/1 22/3/1
f 24/4/1 20/4/1 19/4/1
f 25/4/1 20/4/1 24/4/1
f 26/1/1 21/1/1 20/1/1
f 26/3/1 22/3/1 21/3/1
f 27/3/1 22/3/1 26/3/1
f 28/1/1 25/1/1 24/1/1
f 29/4/1 20/4/1 25/4/1
f 29/1/1 25/1/1 28/1/1
f 30/1/1 26/1/1 20/1/1
f 30/4/1 20/4/1 29/4/1
f 30/1/1 27/1/1 26/1/1
f 31/3/1 22/3/1 27/3/1
f 31/1/1 27/1/1 30/1/1
f 32/6/1 30/6/1 29/6/1
f 33/3/1 31/3/1 30/3/1
f 33/6/1 30/6/1 32/6/1
f 34/3/1 33/3/1 32/3/1
f 35/3/1 22/3/1 31/3/1
f 35/3/1 33/3/1 34/3/1
f 35/3/1 31/3/1 33/3/1
f 36/3/1 22/3/1 35/3/1
f 37/4/1 36/4/1 35/4/1
f 38/4/1 36/4/1 37/4/1
f 41/2/1 40/2/1 39/2/1
f 42/2/1 40/2/1 41/2/1
f 44/4/1 42/4/1 41/4/1
f 45/4/1 42/4/1 44/4/1
f 46/4/1 44/4/1 43/4/1
f 47/5/1 45/5/1 44/5/1
f 47/4/1 44/4/1 46/4/1
f 48/5/1 45/5/1 47/5/1
f 53/2/1 50/2/1 49/2/1
f 54/2/1 50/2/1 53/2/1
f 55/2/1 50/2/1 54/2/1
f 56/2/1 52/2/1 51/2/1
f 57/2/1 52/2/1 56/2/1
f 60/3/1 59/3/1 58/3/1
f 61/3/1 59/3/1 60/3/1
f 62/2/2 63/2/2 66/2/2
f 66/2/2 63/2/2 67/2/2
f 67/2/2 63/2/2 68/2/2
f 64/2/2 65/2/2 69/2/2
f 69/2/2 65/2/2 70/2/2
f 71/3/2 72/3/2 73/3/2
f 73/3/2 72/3/2 74/3/2
f 75/2/2 76/2/2 77/2/2
f 77/2/2 76/2/2 78/2/2
f 77/4/2 78/4/2 80/4/2
f 80/4/2 78/4/2 81/4/2
f 79/4/2 80/4/2 82/4/2
f 80/5/2 81/5/2 83/5/2
f 82/4/2 80/4/2 83/4/2
f 83/5/2 81/5/2 84/5/2
f 85/2/2 86/2/2 89/2/2
f 89/2/2 86/2/2 90/2/2
f 87/2/2 88/2/2 91/2/2
f 91/2/2 88/2/2 92/2/2
f 90/2/2 86/2/2 93/2/2
f 89/3/2 90/3/2 93/3/2
f 93/2/2 86/2/2 94/2/2
f 87/2/2 91/2/2 95/2/2
f 91/3/2 92/3/2 96/3/2
f 95/2/2 91/2/2 96/2/2
f 94/4/2 95/4/2 97/4/2
f 93/3/2 94/3/2 97/3/2
f 95/3/2 96/3/2 98/3/2
f 97/4/2 95/4/2 98/4/2
f 97/3/2 98/3/2 99/3/2
f 96/3/2 92/3/2 100/3/2
f 99/3/2 98/3/2 100/3/2
f 98/3/2 96/3/2 100/3/2
f 97/3/2 99/3/2 101/3/2
f 99/5/2 100/5/2 101/5/2
f 100/3/2 92/3/2 102/3/2
f 101/5/2 100/5/2 102/5/2
f 102/3/2 92/3/2 103/3/2
f 97/3/2 101/3/2 105/3/2
f 93/3/2 97/3/2 105/3/2
f 89/3/2 93/3/2 105/3/2
f 101/3/2 102/3/2 105/3/2
f 105/3/2 102/3/2 106/3/2
f 102/5/2 103/5/2 107/5/2
f 106/3/2 102/3/2 107/3/2
f 107/5/2 103/5/2 108/5/2
f 105/3/2 106/3/2 109/3/2
f 104/4/2 105/4/2 109/4/2
f 109/3/2 106/3/2 110/3/2
f 104/4/2 109/4/2 111/4/2
f 111/4/2 109/4/2 112/4/2
f 109/1/2 110/1/2 113/1/2
f 112/4/2 109/4/2 113/4/2
f 110/3/2 106/3/2 114/3/2
f 113/1/2 110/1/2 114/1/2
f 112/6/2 113/6/2 115/6/2
f 113/3/2 114/3/2 116/3/2
f 115/6/2 113/6/2 116/6/2
f 115/3/2 116/3/2 117/3/2
f 114/3/2 106/3/2 118/3/2
f 117/3/2 116/3/2 118/3/2
f 116/3/2 114/3/2 118/3/2
f 118/3/2 106/3/2 119/3/2
f 118/4/2 119/4/2 120/4/2
f 120/4/2 119/4/2 121/4/2
f 125/4/3 123/4/3 122/4/3
f 125/1/3 124/1/3 123/1/3
f 126/1/3 124/1/3 125/1/3
f 127/4/3 125/4/3 122/4/3
f 127/4/3 126/4/3 125/4/3
f 128/4/3 126/4/3 127/4/3
f 129/4/3 127/4/3 122/4/3
f 129/6/3 128/6/3 127/6/3
f 130/6/3 128/6/3 129/6/3
f 131/4/3 129/4/3 122/4/3
f 131/4/3 130/4/3 129/4/3
f 132/4/3 130/4/3 131/4/3
f 136/6/3 134/6/3 133/6/3
f 137/3/3 135/3/3 134/3/3
f 137/6/3 134/6/3 136/6/3
f 138/3/3 137/3/3 136/3/3
f 139/3/3 137/3/3 138/3/3
f 140/3/3 135/3/3 137/3/3
f 140/3/3 137/3/3 139/3/3
f 141/3/3 135/3/3 140/3/3
f 142/3/3 140/3/3 139/3/3
f 143/5/3 141/5/3 140/5/3
f 143/3/3 140/3/3 142/3/3
f 144/5/3 141/5/3 143/5/3
f 145/6/3 143/6/3 142/6/3
f 146/3/3 144/3/3 143/3/3
f 146/6/3 143/6/3 145/6/3
f 147/3/3 144/3/3 146/3/3
f 151/2/3 149/2/3 148/2/3
f 151/3/3 150/3/3 149/3/3
f 152/3/3 150/3/3 151/3/3
f 153/3/3 150/3/3 152/3/3
f 154/2/3 151/2/3 148/2/3
f 154/2/3 152/2/3 151/2/3
f 155/4/3 153/4/3 152/4/3
f 155/2/3 152/2/3 154/2/3
f 157/4/3 153/4/3 155/4/3
f 158/4/3 153/4/3 157/4/3
f 159/4/3 153/4/3 158/4/3
f 160/2/3 157/2/3 156/2/3
f 161/4/3 158/4/3 157/4/3
f 161/2/3 157/2/3 160/2/3
f 162/1/3 159/1/3 158/1/3
f 162/4/3 158/4/3 161/4/3
f 163/4/3 153/4/3 159/4/3
f 163/1/3 159/1/3 162/1/3
f 164/4/3 153/4/3 163/4/3
f 165/2/3 160/2/3 156/2/3
f 166/3/3 162/3/3 161/3/3
f 166/2/3 160/2/3 165/2/3
f 166/3/3 161/3/3 160/3/3
f 166/3/3 164/3/3 163/3/3
f 166/3/3 163/3/3 162/3/3
f 167/3/3 164/3/3 166/3/3
f 170/4/3 169/4/3 168/4/3
f 171/4/3 169/4/3 170/4/3
f 172/3/3 171/3/3 170/3/3
f 173/3/3 171/3/3 172/3/3
f 176/3/3 175/3/3 174/3/3
f 177/3/3 175/3/3 176/3/3
f 178/4/3 177/4/3 176/4/3
f 179/4/3 177/4/3 178/4/3
f 182/2/3 181/2/3 180/2/3
f 183/2/3 182/2/3 180/2/3
f 184/2/3 182/2/3 183/2/3
f 189/4/3 186/4/3 185/4/3
f 190/4/3 186/4/3 189/4/3
f 191/2/3 188/2/3 187/2/3
f 192/2/3 191/2/3 187/2/3
f 193/2/3 191/2/3 192/2/3
f 197/2/3 195/2/3 194/2/3
f 198/4/3 196/4/3 195/4/3
f 198/2/3 195/2/3 197/2/3
f 199/4/3 196/4/3 198/4/3
f 200/2/4 201/2/4 202/2/4
f 200/2/4 202/2/4 203/2/4
f 203/2/4 202/2/4 204/2/4
f 205/2/4 206/2/4 207/2/4
f 205/2/4 207/2/4 208/2/4
f 208/2/4 207/2/4 209/2/4
f 210/3/4 211/3/4 213/3/4
f 213/3/4 211/3/4 214/3/4
f 211/4/4 212/4/4 215/4/4
f 214/3/4 211/3/4 215/3/4
f 215/4/4 212/4/4 216/4/4
f 213/5/4 214/5/4 217/5/4
f 210/3/4 213/3/4 217/3/4
f 215/3/4 216/3/4 218/3/4
f 217/5/4 214/5/4 218/5/4
f 214/3/4 215/3/4 218/3/4
f 218/3/4 216/3/4 219/3/4
f 219/3/4 216/3/4 220/3/4
f 220/3/4 216/3/4 221/3/4
f 219/3/4 220/3/4 222/3/4
f 217/3/4 218/3/4 224/3/4
f 218/5/4 219/5/4 224/5/4
f 222/3/4 223/3/4 225/3/4
f 224/5/4 219/5/4 225/5/4
f 219/3/4 222/3/4 225/3/4
f 225/3/4 223/3/4 226/3/4
f 226/3/4 223/3/4 227/3/4
f 210/3/4 217/3/4 228/3/4
f 217/3/4 224/3/4 228/3/4
f 224/3/4 225/3/4 228/3/4
f 225/3/4 226/3/4 228/3/4
f 226/4/4 227/4/4 229/4/4
f 228/3/4 226/3/4 229/3/4
f 229/4/4 227/4/4 230/4/4
f 231/2/4 232/2/4 236/2/4
f 232/3/4 233/3/4 236/3/4
f 236/3/4 233/3/4 237/3/4
f 231/2/4 236/2/4 238/2/4
f 236/2/4 237/2/4 238/2/4
f 237/3/4 233/3/4 239/3/4
f 238/2/4 237/2/4 239/2/4
f 233/5/4 234/5/4 240/5/4
f 239/3/4 233/3/4 240/3/4
f 234/3/4 235/3/4 241/3/4
f 240/5/4 234/5/4 241/5/4
f 241/3/4 235/3/4 242/3/4
f 242/3/4 235/3/4 243/3/4
f 239/3/4 240/3/4 248/3/4
f 240/3/4 241/3/4 248/3/4
f 241/5/4 242/5/4 249/5/4
f 248/3/4 241/3/4 249/3/4
f 242/3/4 243/3/4 250/3/4
f 249/5/4 242/5/4 250/5/4
f 243/2/4 244/2/4 251/2/4
f 250/3/4 243/3/4 251/3/4
f 244/4/4 245/4/4 252/4/4
f 251/2/4 244/2/4 252/2/4
f 245/5/4 246/5/4 253/5/4
f 252/4/4 245/4/4 253/4/4
f 253/5/4 246/5/4 254/5/4
f 247/2/4 248/2/4 255/2/4
f 250/3/4 251/3/4 256/3/4
f 255/2/4 248/2/4 256/2/4
f 249/3/4 250/3/4 256/3/4
f 248/3/4 249/3/4 256/3/4
f 256/3/4 251/3/4 257/3/4
f 257/3/4 251/3/4 258/3/4
f 247/2/4 255/2/4 259/2/4
f 255/3/4 256/3/4 260/3/4
f 259/2/4 255/2/4 260/2/4
f 256/3/4 257/3/4 260/3/4
f 257/5/4 258/5/4 261/5/4
f 260/3/4 257/3/4 261/3/4
f 261/5/4 258/5/4 262/5/4
f 267/2/5 264/2/5 263/2/5
f 268/2/5 264/2/5 267/2/5
f 269/2/5 266/2/5 265/2/5
f 270/2/5 266/2/5 269/2/5
f 275/2/5 272/2/5 271/2/5
f 276/2/5 272/2/5 275/2/5
f 277/2/5 274/2/5 273/2/5
f 278/2/5 274/2/5 277/2/5
f 281/4/5 280/4/5 279/4/5
f 282/4/5 280/4/5 281/4/5
f 285/2/5 282/2/5 281/2/5
f 286/2/5 282/2/5 285/2/5
f 289/4/5 284/4/5 283/4/5
f 290/3/5 286/3/5 285/3/5
f 290/4/5 284/4/5 289/4/5
f 290/3/5 285/3/5 284/3/5
f 290/3/5 287/3/5 286/3/5
f 291/3/5 287/3/5 290/3/5
f 292/3/5 287/3/5 291/3/5
f 293/4/5 288/4/5 287/4/5
f 293/3/5 287/3/5 292/3/5
f 294/4/5 288/4/5 293/4/5
f 295/3/5 292/3/5 291/3/5
f 296/3/5 292/3/5 295/3/5
f 299/4/5 298/4/5 297/4/5
f 300/4/5 298/4/5 299/4/5
f 301/4/5 299/4/5 297/4/5
f 302/1/5 300/1/5 299/1/5
f 302/4/5 299/4/5 301/4/5
f 303/4/5 298/4/5 300/4/5
f 303/1/5 300/1/5 302/1/5
f 304/4/5 298/4/5 303/4/5
f 307/4/5 306/4/5 305/4/5
f 308/4/5 306/4/5 307/4/5
f 309/3/6 310/3/6 311/3/6
f 311/3/6 310/3/6 312/3/6
f 312/3/6 310/3/6 313/3/6
f 313/3/6 310/3/6 314/3/6
f 309/3/6 311/3/6 315/3/6
f 315/3/6 311/3/6 316/3/6
f 312/3/6 313/3/6 317/3/6
f 313/5/6 314/5/6 318/5/6
f 317/3/6 313/3/6 318/3/6
f 318/5/6 314/5/6 319/5/6
f 320/1/6 321/1/6 325/1/6
f 321/4/6 322/4/6 326/4/6
f 325/1/6 321/1/6 326/1/6
f 322/6/6 323/6/6 327/6/6
f 326/4/6 322/4/6 327/4/6
f 323/4/6 324/4/6 328/4/6
f 327/6/6 323/6/6 328/6/6
f 328/4/6 324/4/6 329/4/6
f 329/4/6 324/4/6 330/4/6
f 331/4/6 332/4/6 333/4/6
f 333/4/6 332/4/6 334/4/6
f 333/5/6 334/5/6 335/5/6
f 335/5/6 334/5/6 336/5/6
f 337/3/6 338/3/6 341/3/6
f 338/5/6 339/5/6 342/5/6
f 341/3/6 338/3/6 342/3/6
f 339/3/6 340/3/6 343/3/6
f 342/5/6 339/5/6 343/5/6
f 341/5/6 342/5/6 344/5/6
f 337/3/6 341/3/6 344/3/6
f 342/3/6 343/3/6 345/3/6
f 344/5/6 342/5/6 345/5/6
f 337/3/6 344/3/6 346/3/6
f 344/3/6 345/3/6 346/3/6
f 346/3/6 345/3/6 347/3/6
f 347/3/6 345/3/6 348/3/6
f 345/3/6 343/3/6 349/3/6
f 348/3/6 345/3/6 349/3/6
f 343/3/6 340/3/6 350/3/6
f 349/3/6 343/3/6 350/3/6
f 350/3/6 340/3/6 351/3/6
f 348/3/6 349/3/6 352/3/6
f 352/3/6 349/3/6 353/3/6
f 354/4/6 355/4/6 360/4/6
f 355/3/6 356/3/6 361/3/6
f 360/4/6 355/4/6 361/4/6
f 361/3/6 356/3/6 362/3/6
f 357/3/6 358/3/6 363/3/6
f 358/4/6 359/4/6 364/4/6
f 363/3/6 358/3/6 364/3/6
f 364/4/6 359/4/6 365/4/6
