# MagicaVoxel @ Ephtracy

# group
o 

# material
mtllib bird.mtl
usemtl palette

# normals
vn -1 0 0
vn 1 0 0
vn 0 0 1
vn 0 0 -1
vn 0 -1 0
vn 0 1 0

# texcoords
vt 0.806641 0.5
vt 0.810547 0.5
vt 0.962891 0.5
vt 0.994141 0.5

# verts
v -0.5 0.2 0
v -0.5 0.2 -0.4
v -0.5 0.3 0.1
v -0.5 0.3 0
v -0.5 0.5 0.1
v -0.5 0.5 -0.4
v -0.4 0.1 0.3
v -0.4 0.1 -0.3
v -0.4 0.2 0
v -0.4 0.2 -0.3
v -0.4 0.3 0.3
v -0.4 0.3 0.1
v -0.4 0.3 0
v -0.4 0.4 0.3
v -0.4 0.4 0.2
v -0.4 0.5 0.3
v -0.4 0.5 0.2
v -0.4 0.5 0.1
v -0.4 0.5 -0.3
v -0.4 0.6 0.3
v -0.4 0.6 0.2
v -0.4 0.6 -0.3
v -0.3 0 0
v -0.3 0 -0.1
v -0.3 0.1 0
v -0.3 0.1 -0.1
v -0.2 0.3 0.4
v -0.2 0.3 0.3
v -0.2 0.4 0.4
v -0.2 0.4 0.3
v -0.1 0.6 0.2
v -0.1 0.6 -0.2
v -0.1 0.7 0.2
v -0.1 0.7 0.1
v -0.1 0.7 -0.1
v -0.1 0.7 -0.2
v -0.1 0.8 0.1
v -0.1 0.8 -0.1
v 0.1 0 0
v 0.1 0 -0.1
v 0.1 0.1 0
v 0.1 0.1 -0.1
v 0.3 0.2 -0.3
v 0.3 0.2 -0.4
v 0.3 0.5 -0.3
v 0.3 0.5 -0.4
v -0.4 0.2 -0.3
v -0.4 0.2 -0.4
v -0.4 0.5 -0.3
v -0.4 0.5 -0.4
v -0.2 0 0
v -0.2 0 -0.1
v -0.2 0.1 0
v -0.2 0.1 -0.1
v 0 0.6 0.2
v 0 0.6 -0.2
v 0 0.7 0.2
v 0 0.7 0.1
v 0 0.7 -0.1
v 0 0.7 -0.2
v 0 0.8 0.1
v 0 0.8 -0.1
v 0.1 0.3 0.4
v 0.1 0.3 0.3
v 0.1 0.4 0.4
v 0.1 0.4 0.3
v 0.2 0 0
v 0.2 0 -0.1
v 0.2 0.1 0
v 0.2 0.1 -0.1
v 0.3 0.1 0.3
v 0.3 0.1 -0.3
v 0.3 0.2 0
v 0.3 0.2 -0.3
v 0.3 0.3 0.3
v 0.3 0.3 0.1
v 0.3 0.3 0
v 0.3 0.4 0.3
v 0.3 0.4 0.2
v 0.3 0.5 0.3
v 0.3 0.5 0.2
v 0.3 0.5 0.1
v 0.3 0.5 -0.3
v 0.3 0.6 0.3
v 0.3 0.6 0.2
v 0.3 0.6 -0.3
v 0.4 0.2 0
v 0.4 0.2 -0.4
v 0.4 0.3 0.1
v 0.4 0.3 0
v 0.4 0.5 0.1
v 0.4 0.5 -0.4
v -0.2 0.3 0.4
v -0.2 0.4 0.4
v 0.1 0.3 0.4
v 0.1 0.4 0.4
v -0.4 0.1 0.3
v -0.4 0.3 0.3
v -0.4 0.4 0.3
v -0.4 0.5 0.3
v -0.4 0.6 0.3
v -0.3 0.2 0.3
v -0.3 0.3 0.3
v -0.3 0.4 0.3
v -0.3 0.5 0.3
v -0.2 0.3 0.3
v -0.2 0.4 0.3
v -0.2 0.5 0.3
v -0.2 0.6 0.3
v 0.1 0.3 0.3
v 0.1 0.4 0.3
v 0.1 0.5 0.3
v 0.1 0.6 0.3
v 0.2 0.2 0.3
v 0.2 0.3 0.3
v 0.2 0.4 0.3
v 0.2 0.5 0.3
v 0.3 0.1 0.3
v 0.3 0.3 0.3
v 0.3 0.4 0.3
v 0.3 0.5 0.3
v 0.3 0.6 0.3
v -0.1 0.6 0.2
v -0.1 0.7 0.2
v 0 0.6 0.2
v 0 0.7 0.2
v -0.5 0.3 0.1
v -0.5 0.5 0.1
v -0.4 0.3 0.1
v -0.4 0.5 0.1
v -0.1 0.7 0.1
v -0.1 0.8 0.1
v 0 0.7 0.1
v 0 0.8 0.1
v 0.3 0.3 0.1
v 0.3 0.5 0.1
v 0.4 0.3 0.1
v 0.4 0.5 0.1
v -0.5 0.2 0
v -0.5 0.3 0
v -0.4 0.2 0
v -0.4 0.3 0
v -0.3 0 0
v -0.3 0.1 0
v -0.2 0 0
v -0.2 0.1 0
v 0.1 0 0
v 0.1 0.1 0
v 0.2 0 0
v 0.2 0.1 0
v 0.3 0.2 0
v 0.3 0.3 0
v 0.4 0.2 0
v 0.4 0.3 0
v -0.3 0 -0.1
v -0.3 0.1 -0.1
v -0.2 0 -0.1
v -0.2 0.1 -0.1
v -0.1 0.7 -0.1
v -0.1 0.8 -0.1
v 0 0.7 -0.1
v 0 0.8 -0.1
v 0.1 0 -0.1
v 0.1 0.1 -0.1
v 0.2 0 -0.1
v 0.2 0.1 -0.1
v -0.1 0.6 -0.2
v -0.1 0.7 -0.2
v 0 0.6 -0.2
v 0 0.7 -0.2
v -0.4 0.1 -0.3
v -0.4 0.2 -0.3
v -0.4 0.5 -0.3
v -0.4 0.6 -0.3
v 0.3 0.1 -0.3
v 0.3 0.2 -0.3
v 0.3 0.5 -0.3
v 0.3 0.6 -0.3
v -0.5 0.2 -0.4
v -0.5 0.5 -0.4
v -0.4 0.2 -0.4
v -0.4 0.5 -0.4
v 0.3 0.2 -0.4
v 0.3 0.5 -0.4
v 0.4 0.2 -0.4
v 0.4 0.5 -0.4
v -0.3 0 0
v -0.2 0 0
v 0.1 0 0
v 0.2 0 0
v -0.3 0 -0.1
v -0.2 0 -0.1
v 0.1 0 -0.1
v 0.2 0 -0.1
v -0.4 0.1 0.3
v 0.3 0.1 0.3
v -0.3 0.1 0
v -0.2 0.1 0
v 0.1 0.1 0
v 0.2 0.1 0
v -0.3 0.1 -0.1
v -0.2 0.1 -0.1
v 0.1 0.1 -0.1
v 0.2 0.1 -0.1
v -0.4 0.1 -0.3
v 0.3 0.1 -0.3
v -0.5 0.2 0
v -0.4 0.2 0
v 0.3 0.2 0
v 0.4 0.2 0
v -0.4 0.2 -0.3
v 0.3 0.2 -0.3
v -0.5 0.2 -0.4
v -0.4 0.2 -0.4
v 0.3 0.2 -0.4
v 0.4 0.2 -0.4
v -0.2 0.3 0.4
v 0.1 0.3 0.4
v -0.2 0.3 0.3
v 0.1 0.3 0.3
v -0.5 0.3 0.1
v -0.4 0.3 0.1
v 0.3 0.3 0.1
v 0.4 0.3 0.1
v -0.5 0.3 0
v -0.4 0.3 0
v 0.3 0.3 0
v 0.4 0.3 0
v -0.2 0.4 0.4
v 0.1 0.4 0.4
v -0.2 0.4 0.3
v 0.1 0.4 0.3
v -0.5 0.5 0.1
v -0.4 0.5 0.1
v 0.3 0.5 0.1
v 0.4 0.5 0.1
v -0.4 0.5 -0.3
v 0.3 0.5 -0.3
v -0.5 0.5 -0.4
v -0.4 0.5 -0.4
v 0.3 0.5 -0.4
v 0.4 0.5 -0.4
v -0.4 0.6 0.3
v -0.2 0.6 0.3
v 0.1 0.6 0.3
v 0.3 0.6 0.3
v -0.4 0.6 0.2
v -0.2 0.6 0.2
v -0.1 0.6 0.2
v 0 0.6 0.2
v 0.1 0.6 0.2
v 0.3 0.6 0.2
v -0.1 0.6 -0.2
v 0 0.6 -0.2
v -0.4 0.6 -0.3
v 0.3 0.6 -0.3
v -0.1 0.7 0.2
v 0 0.7 0.2
v -0.1 0.7 0.1
v 0 0.7 0.1
v -0.1 0.7 -0.1
v 0 0.7 -0.1
v -0.1 0.7 -0.2
v 0 0.7 -0.2
v -0.1 0.8 0.1
v 0 0.8 0.1
v -0.1 0.8 -0.1
v 0 0.8 -0.1

# faces
f 4/1/1 2/1/1 1/1/1
f 5/1/1 4/1/1 3/1/1
f 6/1/1 2/1/1 4/1/1
f 6/1/1 4/1/1 5/1/1
f 9/2/1 8/2/1 7/2/1
f 10/2/1 8/2/1 9/2/1
f 11/2/1 9/2/1 7/2/1
f 12/2/1 9/2/1 11/2/1
f 13/2/1 9/2/1 12/2/1
f 14/3/1 12/3/1 11/3/1
f 15/3/1 12/3/1 14/3/1
f 16/4/1 15/4/1 14/4/1
f 17/3/1 12/3/1 15/3/1
f 17/4/1 15/4/1 16/4/1
f 18/3/1 12/3/1 17/3/1
f 20/3/1 17/3/1 16/3/1
f 21/2/1 18/2/1 17/2/1
f 21/3/1 17/3/1 20/3/1
f 21/2/1 19/2/1 18/2/1
f 22/2/1 19/2/1 21/2/1
f 25/2/1 24/2/1 23/2/1
f 26/2/1 24/2/1 25/2/1
f 29/4/1 28/4/1 27/4/1
f 30/4/1 28/4/1 29/4/1
f 33/1/1 32/1/1 31/1/1
f 34/1/1 32/1/1 33/1/1
f 35/1/1 32/1/1 34/1/1
f 36/1/1 32/1/1 35/1/1
f 37/1/1 35/1/1 34/1/1
f 38/1/1 35/1/1 37/1/1
f 41/2/1 40/2/1 39/2/1
f 42/2/1 40/2/1 41/2/1
f 45/1/1 44/1/1 43/1/1
f 46/1/1 44/1/1 45/1/1
f 47/1/2 48/1/2 49/1/2
f 49/1/2 48/1/2 50/1/2
f 51/2/2 52/2/2 53/2/2
f 53/2/2 52/2/2 54/2/2
f 55/1/2 56/1/2 57/1/2
f 57/1/2 56/1/2 58/1/2
f 58/1/2 56/1/2 59/1/2
f 59/1/2 56/1/2 60/1/2
f 58/1/2 59/1/2 61/1/2
f 61/1/2 59/1/2 62/1/2
f 63/4/2 64/4/2 65/4/2
f 65/4/2 64/4/2 66/4/2
f 67/2/2 68/2/2 69/2/2
f 69/2/2 68/2/2 70/2/2
f 71/2/2 72/2/2 73/2/2
f 73/2/2 72/2/2 74/2/2
f 71/2/2 73/2/2 75/2/2
f 75/2/2 73/2/2 76/2/2
f 76/2/2 73/2/2 77/2/2
f 75/3/2 76/3/2 78/3/2
f 78/3/2 76/3/2 79/3/2
f 78/4/2 79/4/2 80/4/2
f 79/3/2 76/3/2 81/3/2
f 80/4/2 79/4/2 81/4/2
f 81/3/2 76/3/2 82/3/2
f 80/3/2 81/3/2 84/3/2
f 81/2/2 82/2/2 85/2/2
f 84/3/2 81/3/2 85/3/2
f 82/2/2 83/2/2 85/2/2
f 85/2/2 83/2/2 86/2/2
f 87/1/2 88/1/2 90/1/2
f 89/1/2 90/1/2 91/1/2
f 90/1/2 88/1/2 92/1/2
f 91/1/2 90/1/2 92/1/2
f 95/4/3 94/4/3 93/4/3
f 96/4/3 94/4/3 95/4/3
f 102/2/3 98/2/3 97/2/3
f 103/3/3 99/3/3 98/3/3
f 103/2/3 98/2/3 102/2/3
f 104/4/3 100/4/3 99/4/3
f 104/3/3 99/3/3 103/3/3
f 105/3/3 101/3/3 100/3/3
f 105/4/3 100/4/3 104/4/3
f 106/3/3 104/3/3 103/3/3
f 106/3/3 103/3/3 102/3/3
f 106/3/3 105/3/3 104/3/3
f 107/3/3 105/3/3 106/3/3
f 108/3/3 101/3/3 105/3/3
f 108/3/3 105/3/3 107/3/3
f 109/3/3 101/3/3 108/3/3
f 110/3/3 106/3/3 102/3/3
f 111/3/3 108/3/3 107/3/3
f 112/2/3 109/2/3 108/2/3
f 112/3/3 108/3/3 111/3/3
f 113/2/3 109/2/3 112/2/3
f 114/2/3 102/2/3 97/2/3
f 114/3/3 111/3/3 110/3/3
f 114/3/3 113/3/3 112/3/3
f 114/3/3 112/3/3 111/3/3
f 114/3/3 110/3/3 102/3/3
f 115/3/3 113/3/3 114/3/3
f 116/3/3 113/3/3 115/3/3
f 117/3/3 113/3/3 116/3/3
f 118/2/3 114/2/3 97/2/3
f 118/2/3 115/2/3 114/2/3
f 119/3/3 116/3/3 115/3/3
f 119/2/3 115/2/3 118/2/3
f 120/4/3 117/4/3 116/4/3
f 120/3/3 116/3/3 119/3/3
f 121/3/3 113/3/3 117/3/3
f 121/4/3 117/4/3 120/4/3
f 122/3/3 113/3/3 121/3/3
f 125/1/3 124/1/3 123/1/3
f 126/1/3 124/1/3 125/1/3
f 129/1/3 128/1/3 127/1/3
f 130/1/3 128/1/3 129/1/3
f 133/1/3 132/1/3 131/1/3
f 134/1/3 132/1/3 133/1/3
f 137/1/3 136/1/3 135/1/3
f 138/1/3 136/1/3 137/1/3
f 141/1/3 140/1/3 139/1/3
f 142/1/3 140/1/3 141/1/3
f 145/2/3 144/2/3 143/2/3
f 146/2/3 144/2/3 145/2/3
f 149/2/3 148/2/3 147/2/3
f 150/2/3 148/2/3 149/2/3
f 153/1/3 152/1/3 151/1/3
f 154/1/3 152/1/3 153/1/3
f 155/2/4 156/2/4 157/2/4
f 157/2/4 156/2/4 158/2/4
f 159/1/4 160/1/4 161/1/4
f 161/1/4 160/1/4 162/1/4
f 163/2/4 164/2/4 165/2/4
f 165/2/4 164/2/4 166/2/4
f 167/1/4 168/1/4 169/1/4
f 169/1/4 168/1/4 170/1/4
f 171/2/4 172/2/4 175/2/4
f 173/2/4 174/2/4 175/2/4
f 172/2/4 173/2/4 175/2/4
f 175/2/4 174/2/4 176/2/4
f 176/2/4 174/2/4 177/2/4
f 177/2/4 174/2/4 178/2/4
f 179/1/4 180/1/4 181/1/4
f 181/1/4 180/1/4 182/1/4
f 183/1/4 184/1/4 185/1/4
f 185/1/4 184/1/4 186/1/4
f 191/2/5 188/2/5 187/2/5
f 192/2/5 188/2/5 191/2/5
f 193/2/5 190/2/5 189/2/5
f 194/2/5 190/2/5 193/2/5
f 197/2/5 196/2/5 195/2/5
f 198/2/5 196/2/5 197/2/5
f 199/2/5 196/2/5 198/2/5
f 200/2/5 196/2/5 199/2/5
f 201/2/5 197/2/5 195/2/5
f 202/2/5 199/2/5 198/2/5
f 203/2/5 199/2/5 202/2/5
f 204/2/5 196/2/5 200/2/5
f 205/2/5 203/2/5 202/2/5
f 205/2/5 204/2/5 203/2/5
f 205/2/5 201/2/5 195/2/5
f 205/2/5 202/2/5 201/2/5
f 206/2/5 196/2/5 204/2/5
f 206/2/5 204/2/5 205/2/5
f 211/1/5 208/1/5 207/1/5
f 212/1/5 210/1/5 209/1/5
f 213/1/5 211/1/5 207/1/5
f 214/1/5 211/1/5 213/1/5
f 215/1/5 210/1/5 212/1/5
f 216/1/5 210/1/5 215/1/5
f 219/4/5 218/4/5 217/4/5
f 220/4/5 218/4/5 219/4/5
f 225/1/5 222/1/5 221/1/5
f 226/1/5 222/1/5 225/1/5
f 227/1/5 224/1/5 223/1/5
f 228/1/5 224/1/5 227/1/5
f 229/4/6 230/4/6 231/4/6
f 231/4/6 230/4/6 232/4/6
f 233/1/6 234/1/6 237/1/6
f 235/1/6 236/1/6 238/1/6
f 233/1/6 237/1/6 239/1/6
f 239/1/6 237/1/6 240/1/6
f 238/1/6 236/1/6 241/1/6
f 241/1/6 236/1/6 242/1/6
f 243/3/6 244/3/6 247/3/6
f 244/2/6 245/2/6 248/2/6
f 247/3/6 244/3/6 248/3/6
f 248/2/6 245/2/6 249/2/6
f 249/2/6 245/2/6 250/2/6
f 245/3/6 246/3/6 251/3/6
f 250/2/6 245/2/6 251/2/6
f 251/3/6 246/3/6 252/3/6
f 247/2/6 248/2/6 253/2/6
f 248/2/6 249/2/6 253/2/6
f 251/2/6 252/2/6 254/2/6
f 250/2/6 251/2/6 254/2/6
f 247/2/6 253/2/6 255/2/6
f 253/2/6 254/2/6 255/2/6
f 254/2/6 252/2/6 256/2/6
f 255/2/6 254/2/6 256/2/6
f 257/1/6 258/1/6 259/1/6
f 259/1/6 258/1/6 260/1/6
f 261/1/6 262/1/6 263/1/6
f 263/1/6 262/1/6 264/1/6
f 265/1/6 266/1/6 267/1/6
f 267/1/6 266/1/6 268/1/6
