# MagicaVoxel @ Ephtracy

# group
o 

# material
mtllib bunny.mtl
usemtl palette

# normals
vn -1 0 0
vn 1 0 0
vn 0 0 1
vn 0 0 -1
vn 0 -1 0
vn 0 1 0

# texcoords
vt 0.853516 0.5
vt 0.962891 0.5
vt 0.994141 0.5

# verts
v -0.0999999 0 0.4
v -0.0999999 0 -0.4
v -0.0999999 0.1 0.4
v -0.0999999 0.1 0.3
v -0.0999999 0.1 -0.3
v -0.0999999 0.1 -0.4
v -0.0999999 0.3 0.3
v -0.0999999 0.3 0.2
v -0.0999999 0.4 0.3
v -0.0999999 0.4 0.2
v -0.0999999 0.5 0.3
v -0.0999999 0.5 0.1
v -0.0999999 0.5 -0.1
v -0.0999999 0.5 -0.3
v -0.0999999 0.7 0.2
v -0.0999999 0.7 0.1
v -0.0999999 0.8 0.2
v -0.0999999 0.8 -0.1
v 0.1 0.1 -0.3
v 0.1 0.1 -0.4
v 0.1 0.2 -0.3
v 0.1 0.2 -0.4
v 0.3 0.5 0.1
v 0.3 0.5 0
v 0.3 0.5 -0.1
v 0.3 0.8 0.1
v 0.3 0.8 0
v 0.3 0.9 0.1
v 0.3 0.9 -0.1
v 0.4 0 0.4
v 0.4 0 0.3
v 0.4 0 -0.3
v 0.4 0 -0.4
v 0.4 0.1 0.4
v 0.4 0.1 0.3
v 0.4 0.1 -0.3
v 0.4 0.1 -0.4
v 7.45058e-08 0 0.4
v 7.45058e-08 0 0.3
v 7.45058e-08 0 -0.3
v 7.45058e-08 0 -0.4
v 7.45058e-08 0.1 0.4
v 7.45058e-08 0.1 0.3
v 7.45058e-08 0.1 -0.3
v 7.45058e-08 0.1 -0.4
v 0.1 0.5 0.1
v 0.1 0.5 0
v 0.1 0.5 -0.1
v 0.1 0.7 0.2
v 0.1 0.7 0.1
v 0.1 0.7 0
v 0.1 0.8 0.2
v 0.1 0.8 -0.1
v 0.3 0.1 -0.3
v 0.3 0.1 -0.4
v 0.3 0.2 -0.3
v 0.3 0.2 -0.4
v 0.5 0 0.4
v 0.5 0 -0.4
v 0.5 0.1 0.4
v 0.5 0.1 0.3
v 0.5 0.1 -0.3
v 0.5 0.1 -0.4
v 0.5 0.3 0.3
v 0.5 0.3 0.2
v 0.5 0.4 0.3
v 0.5 0.4 0.2
v 0.5 0.5 0.3
v 0.5 0.5 0.1
v 0.5 0.5 -0.1
v 0.5 0.5 -0.3
v 0.5 0.9 0.1
v 0.5 0.9 -0.1
v -0.0999999 0 0.4
v -0.0999999 0.1 0.4
v 7.45058e-08 0 0.4
v 7.45058e-08 0.1 0.4
v 0.4 0 0.4
v 0.4 0.1 0.4
v 0.5 0 0.4
v 0.5 0.1 0.4
v -0.0999999 0.1 0.3
v -0.0999999 0.3 0.3
v -0.0999999 0.4 0.3
v -0.0999999 0.5 0.3
v 7.45058e-08 0 0.3
v 7.45058e-08 0.1 0.3
v 7.45058e-08 0.3 0.3
v 7.45058e-08 0.4 0.3
v 0.1 0.2 0.3
v 0.1 0.3 0.3
v 0.3 0.2 0.3
v 0.3 0.3 0.3
v 0.4 0 0.3
v 0.4 0.1 0.3
v 0.4 0.3 0.3
v 0.4 0.4 0.3
v 0.5 0.1 0.3
v 0.5 0.3 0.3
v 0.5 0.4 0.3
v 0.5 0.5 0.3
v -0.0999999 0.7 0.2
v -0.0999999 0.8 0.2
v 0.1 0.7 0.2
v 0.1 0.8 0.2
v -0.0999999 0.5 0.1
v -0.0999999 0.7 0.1
v 7.45058e-08 0.5 0.1
v 7.45058e-08 0.7 0.1
v 0.1 0.5 0.1
v 0.1 0.7 0.1
v 0.3 0.5 0.1
v 0.3 0.8 0.1
v 0.3 0.9 0.1
v 0.4 0.5 0.1
v 0.4 0.8 0.1
v 0.5 0.5 0.1
v 0.5 0.9 0.1
v -0.0999999 0.5 -0.1
v -0.0999999 0.8 -0.1
v 0.1 0.5 -0.1
v 0.1 0.8 -0.1
v 0.3 0.5 -0.1
v 0.3 0.9 -0.1
v 0.5 0.5 -0.1
v 0.5 0.9 -0.1
v -0.0999999 0.1 -0.3
v -0.0999999 0.5 -0.3
v 7.45058e-08 0 -0.3
v 7.45058e-08 0.1 -0.3
v 0.1 0.1 -0.3
v 0.1 0.2 -0.3
v 0.3 0.1 -0.3
v 0.3 0.2 -0.3
v 0.4 0 -0.3
v 0.4 0.1 -0.3
v 0.5 0.1 -0.3
v 0.5 0.5 -0.3
v -0.0999999 0 -0.4
v -0.0999999 0.1 -0.4
v 7.45058e-08 0 -0.4
v 7.45058e-08 0.1 -0.4
v 0.1 0.1 -0.4
v 0.1 0.2 -0.4
v 0.3 0.1 -0.4
v 0.3 0.2 -0.4
v 0.4 0 -0.4
v 0.4 0.1 -0.4
v 0.5 0 -0.4
v 0.5 0.1 -0.4
v -0.0999999 0 0.4
v 7.45058e-08 0 0.4
v 0.4 0 0.4
v 0.5 0 0.4
v 7.45058e-08 0 0.3
v 0.4 0 0.3
v 7.45058e-08 0 -0.3
v 0.4 0 -0.3
v -0.0999999 0 -0.4
v 7.45058e-08 0 -0.4
v 0.4 0 -0.4
v 0.5 0 -0.4
v 0.1 0.1 -0.3
v 0.3 0.1 -0.3
v 0.1 0.1 -0.4
v 0.3 0.1 -0.4
v -0.0999999 0.7 0.2
v 0.1 0.7 0.2
v -0.0999999 0.7 0.1
v 7.45058e-08 0.7 0.1
v 0.1 0.7 0.1
v -0.0999999 0.1 0.4
v 7.45058e-08 0.1 0.4
v 0.4 0.1 0.4
v 0.5 0.1 0.4
v -0.0999999 0.1 0.3
v 7.45058e-08 0.1 0.3
v 0.4 0.1 0.3
v 0.5 0.1 0.3
v -0.0999999 0.1 -0.3
v 7.45058e-08 0.1 -0.3
v 0.4 0.1 -0.3
v 0.5 0.1 -0.3
v -0.0999999 0.1 -0.4
v 7.45058e-08 0.1 -0.4
v 0.4 0.1 -0.4
v 0.5 0.1 -0.4
v 0.1 0.2 -0.3
v 0.3 0.2 -0.3
v 0.1 0.2 -0.4
v 0.3 0.2 -0.4
v -0.0999999 0.5 0.3
v 0.5 0.5 0.3
v -0.0999999 0.5 0.1
v 7.45058e-08 0.5 0.1
v 0.1 0.5 0.1
v 0.3 0.5 0.1
v 0.4 0.5 0.1
v 0.5 0.5 0.1
v 0.1 0.5 0
v 0.3 0.5 0
v -0.0999999 0.5 -0.1
v 0.1 0.5 -0.1
v 0.3 0.5 -0.1
v 0.5 0.5 -0.1
v -0.0999999 0.5 -0.3
v 0.5 0.5 -0.3
v -0.0999999 0.8 0.2
v 0.1 0.8 0.2
v -0.0999999 0.8 -0.1
v 0.1 0.8 -0.1
v 0.3 0.9 0.1
v 0.5 0.9 0.1
v 0.3 0.9 -0.1
v 0.5 0.9 -0.1

# faces
f 3/2/1 2/2/1 1/2/1
f 4/2/1 2/2/1 3/2/1
f 5/2/1 2/2/1 4/2/1
f 6/2/1 2/2/1 5/2/1
f 7/2/1 5/2/1 4/2/1
f 8/2/1 5/2/1 7/2/1
f 9/3/1 8/3/1 7/3/1
f 10/2/1 5/2/1 8/2/1
f 10/3/1 8/3/1 9/3/1
f 11/2/1 10/2/1 9/2/1
f 12/2/1 5/2/1 10/2/1
f 12/2/1 10/2/1 11/2/1
f 13/2/1 5/2/1 12/2/1
f 14/2/1 5/2/1 13/2/1
f 16/2/1 13/2/1 12/2/1
f 17/2/1 16/2/1 15/2/1
f 18/2/1 13/2/1 16/2/1
f 18/2/1 16/2/1 17/2/1
f 21/2/1 20/2/1 19/2/1
f 22/2/1 20/2/1 21/2/1
f 26/1/1 24/1/1 23/1/1
f 27/2/1 25/2/1 24/2/1
f 27/1/1 24/1/1 26/1/1
f 28/2/1 27/2/1 26/2/1
f 29/2/1 25/2/1 27/2/1
f 29/2/1 27/2/1 28/2/1
f 34/2/1 31/2/1 30/2/1
f 35/2/1 31/2/1 34/2/1
f 36/2/1 33/2/1 32/2/1
f 37/2/1 33/2/1 36/2/1
f 38/2/2 39/2/2 42/2/2
f 42/2/2 39/2/2 43/2/2
f 40/2/2 41/2/2 44/2/2
f 44/2/2 41/2/2 45/2/2
f 46/1/2 47/1/2 50/1/2
f 47/2/2 48/2/2 51/2/2
f 50/1/2 47/1/2 51/1/2
f 49/2/2 50/2/2 52/2/2
f 50/2/2 51/2/2 52/2/2
f 51/2/2 48/2/2 53/2/2
f 52/2/2 51/2/2 53/2/2
f 54/2/2 55/2/2 56/2/2
f 56/2/2 55/2/2 57/2/2
f 58/2/2 59/2/2 60/2/2
f 60/2/2 59/2/2 61/2/2
f 61/2/2 59/2/2 62/2/2
f 62/2/2 59/2/2 63/2/2
f 61/2/2 62/2/2 64/2/2
f 64/2/2 62/2/2 65/2/2
f 64/3/2 65/3/2 66/3/2
f 65/2/2 62/2/2 67/2/2
f 66/3/2 65/3/2 67/3/2
f 66/2/2 67/2/2 68/2/2
f 67/2/2 62/2/2 69/2/2
f 68/2/2 67/2/2 69/2/2
f 69/2/2 62/2/2 70/2/2
f 70/2/2 62/2/2 71/2/2
f 69/2/2 70/2/2 72/2/2
f 72/2/2 70/2/2 73/2/2
f 76/2/3 75/2/3 74/2/3
f 77/2/3 75/2/3 76/2/3
f 80/2/3 79/2/3 78/2/3
f 81/2/3 79/2/3 80/2/3
f 87/2/3 83/2/3 82/2/3
f 88/3/3 84/3/3 83/3/3
f 88/2/3 83/2/3 87/2/3
f 89/2/3 85/2/3 84/2/3
f 89/3/3 84/3/3 88/3/3
f 90/2/3 88/2/3 87/2/3
f 90/2/3 87/2/3 86/2/3
f 90/2/3 89/2/3 88/2/3
f 91/2/3 89/2/3 90/2/3
f 92/2/3 90/2/3 86/2/3
f 92/1/3 91/1/3 90/1/3
f 93/2/3 89/2/3 91/2/3
f 93/1/3 91/1/3 92/1/3
f 94/2/3 92/2/3 86/2/3
f 94/2/3 93/2/3 92/2/3
f 95/2/3 93/2/3 94/2/3
f 96/2/3 89/2/3 93/2/3
f 96/2/3 93/2/3 95/2/3
f 97/2/3 85/2/3 89/2/3
f 97/2/3 89/2/3 96/2/3
f 98/2/3 96/2/3 95/2/3
f 99/3/3 97/3/3 96/3/3
f 99/2/3 96/2/3 98/2/3
f 100/2/3 85/2/3 97/2/3
f 100/3/3 97/3/3 99/3/3
f 101/2/3 85/2/3 100/2/3
f 104/2/3 103/2/3 102/2/3
f 105/2/3 103/2/3 104/2/3
f 108/2/3 107/2/3 106/2/3
f 109/2/3 107/2/3 108/2/3
f 110/1/3 109/1/3 108/1/3
f 111/1/3 109/1/3 110/1/3
f 115/1/3 113/1/3 112/1/3
f 116/2/3 114/2/3 113/2/3
f 116/1/3 113/1/3 115/1/3
f 117/2/3 116/2/3 115/2/3
f 118/2/3 114/2/3 116/2/3
f 118/2/3 116/2/3 117/2/3
f 119/2/4 120/2/4 121/2/4
f 121/2/4 120/2/4 122/2/4
f 123/2/4 124/2/4 125/2/4
f 125/2/4 124/2/4 126/2/4
f 127/2/4 128/2/4 130/2/4
f 130/2/4 128/2/4 131/2/4
f 129/2/4 130/2/4 131/2/4
f 131/2/4 128/2/4 132/2/4
f 129/2/4 131/2/4 133/2/4
f 132/2/4 128/2/4 134/2/4
f 129/2/4 133/2/4 135/2/4
f 133/2/4 134/2/4 135/2/4
f 135/2/4 134/2/4 136/2/4
f 136/2/4 134/2/4 137/2/4
f 134/2/4 128/2/4 138/2/4
f 137/2/4 134/2/4 138/2/4
f 139/2/4 140/2/4 141/2/4
f 141/2/4 140/2/4 142/2/4
f 143/2/4 144/2/4 145/2/4
f 145/2/4 144/2/4 146/2/4
f 147/2/4 148/2/4 149/2/4
f 149/2/4 148/2/4 150/2/4
f 155/2/5 152/2/5 151/2/5
f 156/2/5 154/2/5 153/2/5
f 157/2/5 155/2/5 151/2/5
f 157/2/5 156/2/5 155/2/5
f 158/2/5 154/2/5 156/2/5
f 158/2/5 156/2/5 157/2/5
f 159/2/5 157/2/5 151/2/5
f 160/2/5 157/2/5 159/2/5
f 161/2/5 154/2/5 158/2/5
f 162/2/5 154/2/5 161/2/5
f 165/2/5 164/2/5 163/2/5
f 166/2/5 164/2/5 165/2/5
f 169/2/5 168/2/5 167/2/5
f 170/2/5 168/2/5 169/2/5
f 171/2/5 168/2/5 170/2/5
f 172/2/6 173/2/6 176/2/6
f 176/2/6 173/2/6 177/2/6
f 174/2/6 175/2/6 178/2/6
f 178/2/6 175/2/6 179/2/6
f 180/2/6 181/2/6 184/2/6
f 184/2/6 181/2/6 185/2/6
f 182/2/6 183/2/6 186/2/6
f 186/2/6 183/2/6 187/2/6
f 188/2/6 189/2/6 190/2/6
f 190/2/6 189/2/6 191/2/6
f 192/2/6 193/2/6 194/2/6
f 194/2/6 193/2/6 195/2/6
f 195/2/6 193/2/6 196/2/6
f 196/2/6 193/2/6 197/2/6
f 197/2/6 193/2/6 198/2/6
f 198/2/6 193/2/6 199/2/6
f 196/2/6 197/2/6 200/2/6
f 200/2/6 197/2/6 201/2/6
f 200/2/6 201/2/6 203/2/6
f 203/2/6 201/2/6 204/2/6
f 203/2/6 204/2/6 206/2/6
f 204/2/6 205/2/6 206/2/6
f 202/2/6 203/2/6 206/2/6
f 206/2/6 205/2/6 207/2/6
f 208/2/6 209/2/6 210/2/6
f 210/2/6 209/2/6 211/2/6
f 212/2/6 213/2/6 214/2/6
f 214/2/6 213/2/6 215/2/6
