# MagicaVoxel @ Ephtracy

# group
o 

# material
mtllib llama.mtl
usemtl palette

# normals
vn -1 0 0
vn 1 0 0
vn 0 0 1
vn 0 0 -1
vn 0 -1 0
vn 0 1 0

# texcoords
vt 0.240234 0.5
vt 0.724609 0.5
vt 0.853516 0.5
vt 0.958984 0.5
vt 0.962891 0.5
vt 0.994141 0.5

# verts
v -0.4 0 0.8
v -0.4 0 0.7
v -0.4 0 0.1
v -0.4 0 0
v -0.4 0.1 0.8
v -0.4 0.1 0.7
v -0.4 0.1 0.1
v -0.4 0.1 0
v -0.4 0.6 0.8
v -0.4 0.6 0
v -0.4 1.1 0.7
v -0.4 1.1 0.5
v -0.4 1.2 0.8
v -0.4 1.2 0.7
v -0.4 1.2 0.6
v -0.4 1.2 0.5
v -0.4 1.2 0.4
v -0.4 1.3 0.8
v -0.4 1.3 0.7
v -0.4 1.4 0.7
v -0.4 1.4 0.6
v -0.4 1.4 0.5
v -0.4 1.4 0.4
v -0.4 1.5 0.7
v -0.4 1.5 0.5
v -0.3 0.6 0.8
v -0.3 0.6 0.5
v -0.3 1.1 0.7
v -0.3 1.1 0.5
v -0.3 1.2 0.9
v -0.3 1.2 0.8
v -0.3 1.2 0.7
v -0.3 1.2 0.6
v -0.3 1.3 0.9
v -0.3 1.3 0.8
v -0.3 1.3 0.7
v -0.3 1.4 0.9
v -0.3 1.4 0.8
v -0.3 1.4 0.7
v -0.3 1.4 0.6
v -0.3 1.5 0.9
v -0.3 1.5 0.8
v -0.3 1.5 0.7
v 0 0 0.8
v 0 0 0.7
v 0 0 0.1
v 0 0 0
v 0 0.1 0.8
v 0 0.1 0.7
v 0 0.1 0.1
v 0 0.1 0
v 0 1.2 0.5
v 0 1.2 0.4
v 0 1.4 0.5
v 0 1.4 0.4
v -0.3 0 0.8
v -0.3 0 0.7
v -0.3 0 0.1
v -0.3 0 0
v -0.3 0.1 0.8
v -0.3 0.1 0.7
v -0.3 0.1 0.1
v -0.3 0.1 0
v -0.3 1.2 0.5
v -0.3 1.2 0.4
v -0.3 1.4 0.5
v -0.3 1.4 0.4
v 0 0.6 0.8
v 0 0.6 0.5
v 0 1.1 0.7
v 0 1.1 0.5
v 0 1.2 0.9
v 0 1.2 0.8
v 0 1.2 0.7
v 0 1.2 0.6
v 0 1.3 0.9
v 0 1.3 0.8
v 0 1.3 0.7
v 0 1.4 0.9
v 0 1.4 0.8
v 0 1.4 0.7
v 0 1.4 0.6
v 0 1.5 0.9
v 0 1.5 0.8
v 0 1.5 0.7
v 0.1 0 0.8
v 0.1 0 0.7
v 0.1 0 0.1
v 0.1 0 0
v 0.1 0.1 0.8
v 0.1 0.1 0.7
v 0.1 0.1 0.1
v 0.1 0.1 0
v 0.1 0.6 0.8
v 0.1 0.6 0
v 0.1 1.1 0.7
v 0.1 1.1 0.5
v 0.1 1.2 0.8
v 0.1 1.2 0.7
v 0.1 1.2 0.6
v 0.1 1.2 0.5
v 0.1 1.2 0.4
v 0.1 1.3 0.8
v 0.1 1.3 0.7
v 0.1 1.4 0.7
v 0.1 1.4 0.6
v 0.1 1.4 0.5
v 0.1 1.4 0.4
v 0.1 1.5 0.7
v 0.1 1.5 0.5
v -0.3 1.2 0.9
v -0.3 1.3 0.9
v -0.3 1.4 0.9
v -0.3 1.5 0.9
v -0.2 1.3 0.9
v -0.2 1.4 0.9
v -0.1 1.3 0.9
v -0.1 1.4 0.9
v 0 1.2 0.9
v 0 1.3 0.9
v 0 1.4 0.9
v 0 1.5 0.9
v -0.4 0 0.8
v -0.4 0.1 0.8
v -0.4 0.6 0.8
v -0.4 1.2 0.8
v -0.4 1.3 0.8
v -0.3 0 0.8
v -0.3 0.1 0.8
v -0.3 0.6 0.8
v -0.3 1.2 0.8
v -0.3 1.3 0.8
v 0 0 0.8
v 0 0.1 0.8
v 0 0.6 0.8
v 0 1.2 0.8
v 0 1.3 0.8
v 0.1 0 0.8
v 0.1 0.1 0.8
v 0.1 0.6 0.8
v 0.1 1.2 0.8
v 0.1 1.3 0.8
v -0.4 1.1 0.7
v -0.4 1.2 0.7
v -0.4 1.4 0.7
v -0.4 1.5 0.7
v -0.3 1.1 0.7
v -0.3 1.2 0.7
v -0.3 1.4 0.7
v -0.3 1.5 0.7
v 0 1.1 0.7
v 0 1.2 0.7
v 0 1.4 0.7
v 0 1.5 0.7
v 0.1 1.1 0.7
v 0.1 1.2 0.7
v 0.1 1.4 0.7
v 0.1 1.5 0.7
v -0.4 1.2 0.6
v -0.4 1.4 0.6
v -0.3 1.2 0.6
v -0.3 1.4 0.6
v 0 1.2 0.6
v 0 1.4 0.6
v 0.1 1.2 0.6
v 0.1 1.4 0.6
v -0.4 0 0.1
v -0.4 0.1 0.1
v -0.3 0 0.1
v -0.3 0.1 0.1
v 0 0 0.1
v 0 0.1 0.1
v 0.1 0 0.1
v 0.1 0.1 0.1
v -0.4 0 0.7
v -0.4 0.1 0.7
v -0.4 1.2 0.7
v -0.4 1.3 0.7
v -0.3 0 0.7
v -0.3 0.1 0.7
v -0.3 1.2 0.7
v -0.3 1.3 0.7
v 0 0 0.7
v 0 0.1 0.7
v 0 1.2 0.7
v 0 1.3 0.7
v 0.1 0 0.7
v 0.1 0.1 0.7
v 0.1 1.2 0.7
v 0.1 1.3 0.7
v -0.4 1.1 0.5
v -0.4 1.2 0.5
v -0.4 1.4 0.5
v -0.4 1.5 0.5
v -0.3 0.6 0.5
v -0.3 1.1 0.5
v -0.3 1.2 0.5
v -0.3 1.4 0.5
v -0.3 1.5 0.5
v 0 0.6 0.5
v 0 1.1 0.5
v 0 1.2 0.5
v 0 1.4 0.5
v 0 1.5 0.5
v 0.1 1.1 0.5
v 0.1 1.2 0.5
v 0.1 1.4 0.5
v 0.1 1.5 0.5
v -0.4 1.2 0.4
v -0.4 1.4 0.4
v -0.3 1.2 0.4
v -0.3 1.4 0.4
v 0 1.2 0.4
v 0 1.4 0.4
v 0.1 1.2 0.4
v 0.1 1.4 0.4
v -0.4 0 0
v -0.4 0.1 0
v -0.4 0.6 0
v -0.3 0 0
v -0.3 0.1 0
v 0 0 0
v 0 0.1 0
v 0.1 0 0
v 0.1 0.1 0
v 0.1 0.6 0
v -0.4 0 0.8
v -0.3 0 0.8
v 0 0 0.8
v 0.1 0 0.8
v -0.4 0 0.7
v -0.3 0 0.7
v 0 0 0.7
v 0.1 0 0.7
v -0.4 0 0.1
v -0.3 0 0.1
v 0 0 0.1
v 0.1 0 0.1
v -0.4 0 0
v -0.3 0 0
v 0 0 0
v 0.1 0 0
v -0.3 0.1 0.8
v 0 0.1 0.8
v -0.4 0.1 0.7
v -0.3 0.1 0.7
v 0 0.1 0.7
v 0.1 0.1 0.7
v -0.4 0.1 0.1
v -0.3 0.1 0.1
v 0 0.1 0.1
v 0.1 0.1 0.1
v -0.3 0.1 0
v 0 0.1 0
v -0.4 1.1 0.7
v -0.3 1.1 0.7
v 0 1.1 0.7
v 0.1 1.1 0.7
v -0.4 1.1 0.5
v -0.3 1.1 0.5
v 0 1.1 0.5
v 0.1 1.1 0.5
v -0.3 1.2 0.9
v 0 1.2 0.9
v -0.4 1.2 0.8
v -0.3 1.2 0.8
v 0 1.2 0.8
v 0.1 1.2 0.8
v -0.4 1.2 0.7
v -0.3 1.2 0.7
v 0 1.2 0.7
v 0.1 1.2 0.7
v -0.4 1.2 0.5
v -0.3 1.2 0.5
v 0 1.2 0.5
v 0.1 1.2 0.5
v -0.4 1.2 0.4
v -0.3 1.2 0.4
v 0 1.2 0.4
v 0.1 1.2 0.4
v -0.4 1.4 0.7
v -0.3 1.4 0.7
v 0 1.4 0.7
v 0.1 1.4 0.7
v -0.4 1.4 0.6
v -0.3 1.4 0.6
v 0 1.4 0.6
v 0.1 1.4 0.6
v -0.4 0.6 0.8
v -0.3 0.6 0.8
v 0 0.6 0.8
v 0.1 0.6 0.8
v -0.3 0.6 0.5
v 0 0.6 0.5
v -0.4 0.6 0
v 0.1 0.6 0
v -0.4 1.2 0.7
v -0.3 1.2 0.7
v 0 1.2 0.7
v 0.1 1.2 0.7
v -0.4 1.2 0.6
v -0.3 1.2 0.6
v 0 1.2 0.6
v 0.1 1.2 0.6
v -0.4 1.3 0.8
v -0.3 1.3 0.8
v 0 1.3 0.8
v 0.1 1.3 0.8
v -0.4 1.3 0.7
v -0.3 1.3 0.7
v 0 1.3 0.7
v 0.1 1.3 0.7
v -0.4 1.4 0.5
v -0.3 1.4 0.5
v 0 1.4 0.5
v 0.1 1.4 0.5
v -0.4 1.4 0.4
v -0.3 1.4 0.4
v 0 1.4 0.4
v 0.1 1.4 0.4
v -0.3 1.5 0.9
v 0 1.5 0.9
v -0.3 1.5 0.8
v 0 1.5 0.8
v -0.4 1.5 0.7
v -0.3 1.5 0.7
v 0 1.5 0.7
v 0.1 1.5 0.7
v -0.4 1.5 0.5
v -0.3 1.5 0.5
v 0 1.5 0.5
v 0.1 1.5 0.5

# faces
f 5/4/1 2/4/1 1/4/1
f 6/4/1 2/4/1 5/4/1
f 7/4/1 4/4/1 3/4/1
f 8/4/1 4/4/1 7/4/1
f 9/1/1 6/1/1 5/1/1
f 9/1/1 7/1/1 6/1/1
f 9/1/1 8/1/1 7/1/1
f 10/1/1 8/1/1 9/1/1
f 14/4/1 12/4/1 11/4/1
f 15/4/1 12/4/1 14/4/1
f 16/4/1 12/4/1 15/4/1
f 18/4/1 14/4/1 13/4/1
f 19/4/1 14/4/1 18/4/1
f 21/4/1 17/4/1 16/4/1
f 21/4/1 16/4/1 15/4/1
f 22/4/1 17/4/1 21/4/1
f 23/4/1 17/4/1 22/4/1
f 24/4/1 21/4/1 20/4/1
f 24/4/1 22/4/1 21/4/1
f 25/4/1 22/4/1 24/4/1
f 28/1/1 27/1/1 26/1/1
f 29/1/1 27/1/1 28/1/1
f 31/1/1 28/1/1 26/1/1
f 32/1/1 28/1/1 31/1/1
f 34/2/1 31/2/1 30/2/1
f 35/2/1 31/2/1 34/2/1
f 36/1/1 33/1/1 32/1/1
f 37/6/1 35/6/1 34/6/1
f 38/1/1 36/1/1 35/1/1
f 38/6/1 35/6/1 37/6/1
f 39/1/1 33/1/1 36/1/1
f 39/1/1 36/1/1 38/1/1
f 40/1/1 33/1/1 39/1/1
f 41/2/1 38/2/1 37/2/1
f 42/1/1 39/1/1 38/1/1
f 42/2/1 38/2/1 41/2/1
f 43/1/1 39/1/1 42/1/1
f 48/4/1 45/4/1 44/4/1
f 49/4/1 45/4/1 48/4/1
f 50/4/1 47/4/1 46/4/1
f 51/4/1 47/4/1 50/4/1
f 54/4/1 53/4/1 52/4/1
f 55/4/1 53/4/1 54/4/1
f 56/4/2 57/4/2 60/4/2
f 60/4/2 57/4/2 61/4/2
f 58/4/2 59/4/2 62/4/2
f 62/4/2 59/4/2 63/4/2
f 64/4/2 65/4/2 66/4/2
f 66/4/2 65/4/2 67/4/2
f 68/1/2 69/1/2 70/1/2
f 70/1/2 69/1/2 71/1/2
f 68/1/2 70/1/2 73/1/2
f 73/1/2 70/1/2 74/1/2
f 72/2/2 73/2/2 76/2/2
f 76/2/2 73/2/2 77/2/2
f 74/1/2 75/1/2 78/1/2
f 76/6/2 77/6/2 79/6/2
f 77/1/2 78/1/2 80/1/2
f 79/6/2 77/6/2 80/6/2
f 78/1/2 75/1/2 81/1/2
f 80/1/2 78/1/2 81/1/2
f 81/1/2 75/1/2 82/1/2
f 79/2/2 80/2/2 83/2/2
f 80/1/2 81/1/2 84/1/2
f 83/2/2 80/2/2 84/2/2
f 84/1/2 81/1/2 85/1/2
f 86/4/2 87/4/2 90/4/2
f 90/4/2 87/4/2 91/4/2
f 88/4/2 89/4/2 92/4/2
f 92/4/2 89/4/2 93/4/2
f 90/1/2 91/1/2 94/1/2
f 91/1/2 92/1/2 94/1/2
f 92/1/2 93/1/2 94/1/2
f 94/1/2 93/1/2 95/1/2
f 96/4/2 97/4/2 99/4/2
f 99/4/2 97/4/2 100/4/2
f 100/4/2 97/4/2 101/4/2
f 98/4/2 99/4/2 103/4/2
f 103/4/2 99/4/2 104/4/2
f 101/4/2 102/4/2 106/4/2
f 100/4/2 101/4/2 106/4/2
f 106/4/2 102/4/2 107/4/2
f 107/4/2 102/4/2 108/4/2
f 105/4/2 106/4/2 109/4/2
f 106/4/2 107/4/2 109/4/2
f 109/4/2 107/4/2 110/4/2
f 115/2/3 112/2/3 111/2/3
f 115/6/3 113/6/3 112/6/3
f 116/2/3 114/2/3 113/2/3
f 116/6/3 113/6/3 115/6/3
f 117/2/3 115/2/3 111/2/3
f 117/3/3 116/3/3 115/3/3
f 118/2/3 114/2/3 116/2/3
f 118/3/3 116/3/3 117/3/3
f 119/2/3 117/2/3 111/2/3
f 120/6/3 118/6/3 117/6/3
f 120/2/3 117/2/3 119/2/3
f 121/2/3 114/2/3 118/2/3
f 121/6/3 118/6/3 120/6/3
f 122/2/3 114/2/3 121/2/3
f 128/4/3 124/4/3 123/4/3
f 129/1/3 125/1/3 124/1/3
f 129/4/3 124/4/3 128/4/3
f 130/1/3 125/1/3 129/1/3
f 131/4/3 127/4/3 126/4/3
f 132/4/3 127/4/3 131/4/3
f 134/1/3 130/1/3 129/1/3
f 134/1/3 131/1/3 130/1/3
f 135/1/3 131/1/3 134/1/3
f 136/1/3 131/1/3 135/1/3
f 138/4/3 134/4/3 133/4/3
f 139/1/3 135/1/3 134/1/3
f 139/4/3 134/4/3 138/4/3
f 140/1/3 135/1/3 139/1/3
f 141/4/3 137/4/3 136/4/3
f 142/4/3 137/4/3 141/4/3
f 147/4/3 144/4/3 143/4/3
f 148/4/3 144/4/3 147/4/3
f 149/4/3 146/4/3 145/4/3
f 150/4/3 146/4/3 149/4/3
f 155/4/3 152/4/3 151/4/3
f 156/4/3 152/4/3 155/4/3
f 157/4/3 154/4/3 153/4/3
f 158/4/3 154/4/3 157/4/3
f 161/4/3 160/4/3 159/4/3
f 162/4/3 160/4/3 161/4/3
f 165/4/3 164/4/3 163/4/3
f 166/4/3 164/4/3 165/4/3
f 169/4/3 168/4/3 167/4/3
f 170/4/3 168/4/3 169/4/3
f 173/4/3 172/4/3 171/4/3
f 174/4/3 172/4/3 173/4/3
f 175/4/4 176/4/4 179/4/4
f 179/4/4 176/4/4 180/4/4
f 177/4/4 178/4/4 181/4/4
f 181/4/4 178/4/4 182/4/4
f 183/4/4 184/4/4 187/4/4
f 187/4/4 184/4/4 188/4/4
f 185/4/4 186/4/4 189/4/4
f 189/4/4 186/4/4 190/4/4
f 191/4/4 192/4/4 196/4/4
f 196/4/4 192/4/4 197/4/4
f 193/4/4 194/4/4 198/4/4
f 198/4/4 194/4/4 199/4/4
f 196/1/4 197/1/4 200/1/4
f 195/1/4 196/1/4 200/1/4
f 198/1/4 199/1/4 200/1/4
f 197/1/4 198/1/4 200/1/4
f 200/1/4 199/1/4 201/1/4
f 201/1/4 199/1/4 202/1/4
f 202/1/4 199/1/4 203/1/4
f 203/1/4 199/1/4 204/1/4
f 201/4/4 202/4/4 205/4/4
f 205/4/4 202/4/4 206/4/4
f 203/4/4 204/4/4 207/4/4
f 207/4/4 204/4/4 208/4/4
f 209/4/4 210/4/4 211/4/4
f 211/4/4 210/4/4 212/4/4
f 213/4/4 214/4/4 215/4/4
f 215/4/4 214/4/4 216/4/4
f 217/4/4 218/4/4 220/4/4
f 218/1/4 219/1/4 221/1/4
f 220/4/4 218/4/4 221/4/4
f 221/1/4 219/1/4 223/1/4
f 222/4/4 223/4/4 224/4/4
f 223/1/4 219/1/4 225/1/4
f 224/4/4 223/4/4 225/4/4
f 225/1/4 219/1/4 226/1/4
f 231/4/5 228/4/5 227/4/5
f 232/4/5 228/4/5 231/4/5
f 233/4/5 230/4/5 229/4/5
f 234/4/5 230/4/5 233/4/5
f 239/4/5 236/4/5 235/4/5
f 240/4/5 236/4/5 239/4/5
f 241/4/5 238/4/5 237/4/5
f 242/4/5 238/4/5 241/4/5
f 246/1/5 244/1/5 243/1/5
f 247/1/5 244/1/5 246/1/5
f 249/1/5 246/1/5 245/1/5
f 249/1/5 248/1/5 247/1/5
f 249/1/5 247/1/5 246/1/5
f 250/1/5 248/1/5 249/1/5
f 251/1/5 248/1/5 250/1/5
f 252/1/5 248/1/5 251/1/5
f 253/1/5 251/1/5 250/1/5
f 254/1/5 251/1/5 253/1/5
f 259/4/5 256/4/5 255/4/5
f 260/4/5 256/4/5 259/4/5
f 261/4/5 258/4/5 257/4/5
f 262/4/5 258/4/5 261/4/5
f 266/2/5 264/2/5 263/2/5
f 267/2/5 264/2/5 266/2/5
f 269/4/5 266/4/5 265/4/5
f 270/4/5 266/4/5 269/4/5
f 271/4/5 268/4/5 267/4/5
f 272/4/5 268/4/5 271/4/5
f 277/4/5 274/4/5 273/4/5
f 278/4/5 274/4/5 277/4/5
f 279/4/5 276/4/5 275/4/5
f 280/4/5 276/4/5 279/4/5
f 285/4/5 282/4/5 281/4/5
f 286/4/5 282/4/5 285/4/5
f 287/4/5 284/4/5 283/4/5
f 288/4/5 284/4/5 287/4/5
f 289/1/6 290/1/6 293/1/6
f 291/1/6 292/1/6 294/1/6
f 289/1/6 293/1/6 295/1/6
f 293/1/6 294/1/6 295/1/6
f 294/1/6 292/1/6 296/1/6
f 295/1/6 294/1/6 296/1/6
f 297/4/6 298/4/6 301/4/6
f 301/4/6 298/4/6 302/4/6
f 299/4/6 300/4/6 303/4/6
f 303/4/6 300/4/6 304/4/6
f 305/4/6 306/4/6 309/4/6
f 309/4/6 306/4/6 310/4/6
f 307/4/6 308/4/6 311/4/6
f 311/4/6 308/4/6 312/4/6
f 313/4/6 314/4/6 317/4/6
f 317/4/6 314/4/6 318/4/6
f 315/4/6 316/4/6 319/4/6
f 319/4/6 316/4/6 320/4/6
f 321/2/6 322/2/6 323/2/6
f 323/2/6 322/2/6 324/2/6
f 323/1/6 324/1/6 326/1/6
f 326/1/6 324/1/6 327/1/6
f 325/4/6 326/4/6 329/4/6
f 326/1/6 327/1/6 330/1/6
f 329/4/6 326/4/6 330/4/6
f 327/4/6 328/4/6 331/4/6
f 330/1/6 327/1/6 331/1/6
f 331/4/6 328/4/6 332/4/6
