# MagicaVoxel @ Ephtracy

# group
o 

# material
mtllib racoon.mtl
usemtl palette

# normals
vn -1 0 0
vn 1 0 0
vn 0 0 1
vn 0 0 -1
vn 0 -1 0
vn 0 1 0

# texcoords
vt 0.791016 0.5
vt 0.794922 0.5
vt 0.958984 0.5
vt 0.994141 0.5

# verts
v -0.5 0 0.8
v -0.5 0 0.7
v -0.5 0 0
v -0.5 0 -0.1
v -0.5 0.1 0.7
v -0.5 0.1 0
v -0.5 0.2 0.8
v -0.5 0.2 0.7
v -0.5 0.5 0.8
v -0.5 0.5 0.7
v -0.5 0.6 0.8
v -0.5 0.6 0.7
v -0.5 0.6 0.6
v -0.5 0.6 -0.1
v -0.5 0.7 0.7
v -0.5 0.7 0.6
v -0.4 0.7 0.7
v -0.4 0.7 0.6
v -0.4 0.8 0.7
v -0.4 0.8 0.6
v -0.3 0.2 0.9
v -0.3 0.2 0.8
v -0.3 0.4 0.9
v -0.3 0.4 0.8
v -0.3 0.4 -0.1
v -0.3 0.4 -0.2
v -0.3 0.4 -0.3
v -0.3 0.5 -0.1
v -0.3 0.5 -0.2
v -0.3 0.5 -0.3
v -0.3 0.5 -0.4
v -0.3 0.6 -0.2
v -0.3 0.6 -0.4
v -0.3 0.7 -0.2
v -0.3 0.7 -0.4
v 0 0.6 0.7
v 0 0.6 0.6
v 0 0.7 0.7
v 0 0.7 0.6
v 0 0.8 0.7
v 0 0.8 0.6
v 0.1 0 0.8
v 0.1 0 0.7
v 0.1 0 0
v 0.1 0 -0.1
v 0.1 0.1 0.8
v 0.1 0.1 0.7
v 0.1 0.1 0
v 0.1 0.1 -0.1
v -0.4 0 0.8
v -0.4 0 0.7
v -0.4 0 0
v -0.4 0 -0.1
v -0.4 0.1 0.8
v -0.4 0.1 0.7
v -0.4 0.1 0
v -0.4 0.1 -0.1
v -0.3 0.6 0.7
v -0.3 0.6 0.6
v -0.3 0.7 0.7
v -0.3 0.7 0.6
v -0.3 0.8 0.7
v -0.3 0.8 0.6
v 0 0.2 0.9
v 0 0.2 0.8
v 0 0.4 0.9
v 0 0.4 0.8
v 0 0.4 -0.1
v 0 0.4 -0.2
v 0 0.4 -0.3
v 0 0.5 -0.1
v 0 0.5 -0.2
v 0 0.5 -0.3
v 0 0.5 -0.4
v 0 0.6 -0.2
v 0 0.6 -0.4
v 0 0.7 -0.2
v 0 0.7 -0.4
v 0.1 0.7 0.7
v 0.1 0.7 0.6
v 0.1 0.8 0.7
v 0.1 0.8 0.6
v 0.2 0 0.8
v 0.2 0 0.7
v 0.2 0 0
v 0.2 0 -0.1
v 0.2 0.1 0.7
v 0.2 0.1 0
v 0.2 0.2 0.8
v 0.2 0.2 0.7
v 0.2 0.5 0.8
v 0.2 0.5 0.7
v 0.2 0.6 0.8
v 0.2 0.6 0.7
v 0.2 0.6 0.6
v 0.2 0.6 -0.1
v 0.2 0.7 0.7
v 0.2 0.7 0.6
v -0.3 0.2 0.9
v -0.3 0.4 0.9
v -0.2 0.3 0.9
v -0.2 0.4 0.9
v -0.1 0.3 0.9
v -0.1 0.4 0.9
v 0 0.2 0.9
v 0 0.4 0.9
v -0.5 0 0.8
v -0.5 0.2 0.8
v -0.5 0.5 0.8
v -0.5 0.6 0.8
v -0.4 0 0.8
v -0.4 0.1 0.8
v -0.4 0.4 0.8
v -0.4 0.5 0.8
v -0.3 0.2 0.8
v -0.3 0.4 0.8
v -0.3 0.5 0.8
v -0.2 0.4 0.8
v -0.2 0.5 0.8
v -0.2 0.6 0.8
v -0.1 0.4 0.8
v -0.1 0.5 0.8
v -0.1 0.6 0.8
v 0 0.2 0.8
v 0 0.4 0.8
v 0 0.5 0.8
v 0.1 0 0.8
v 0.1 0.1 0.8
v 0.1 0.4 0.8
v 0.1 0.5 0.8
v 0.2 0 0.8
v 0.2 0.2 0.8
v 0.2 0.5 0.8
v 0.2 0.6 0.8
v -0.5 0.6 0.7
v -0.5 0.7 0.7
v -0.4 0.6 0.7
v -0.4 0.7 0.7
v -0.4 0.8 0.7
v -0.3 0.6 0.7
v -0.3 0.7 0.7
v -0.3 0.8 0.7
v 0 0.6 0.7
v 0 0.7 0.7
v 0 0.8 0.7
v 0.1 0.6 0.7
v 0.1 0.7 0.7
v 0.1 0.8 0.7
v 0.2 0.6 0.7
v 0.2 0.7 0.7
v -0.5 0 0
v -0.5 0.1 0
v -0.4 0 0
v -0.4 0.1 0
v 0.1 0 0
v 0.1 0.1 0
v 0.2 0 0
v 0.2 0.1 0
v -0.3 0.5 -0.2
v -0.3 0.6 -0.2
v -0.3 0.7 -0.2
v 0 0.5 -0.2
v 0 0.6 -0.2
v 0 0.7 -0.2
v -0.5 0 0.7
v -0.5 0.1 0.7
v -0.4 0 0.7
v -0.4 0.1 0.7
v 0.1 0 0.7
v 0.1 0.1 0.7
v 0.2 0 0.7
v 0.2 0.1 0.7
v -0.5 0.6 0.6
v -0.5 0.7 0.6
v -0.4 0.6 0.6
v -0.4 0.7 0.6
v -0.4 0.8 0.6
v -0.3 0.6 0.6
v -0.3 0.7 0.6
v -0.3 0.8 0.6
v 0 0.6 0.6
v 0 0.7 0.6
v 0 0.8 0.6
v 0.1 0.6 0.6
v 0.1 0.7 0.6
v 0.1 0.8 0.6
v 0.2 0.6 0.6
v 0.2 0.7 0.6
v -0.5 0 -0.1
v -0.5 0.6 -0.1
v -0.4 0 -0.1
v -0.4 0.1 -0.1
v -0.3 0.4 -0.1
v -0.3 0.5 -0.1
v 0 0.4 -0.1
v 0 0.5 -0.1
v 0.1 0 -0.1
v 0.1 0.1 -0.1
v 0.2 0 -0.1
v 0.2 0.6 -0.1
v -0.3 0.4 -0.3
v -0.3 0.5 -0.3
v 0 0.4 -0.3
v 0 0.5 -0.3
v -0.3 0.5 -0.4
v -0.3 0.6 -0.4
v -0.3 0.7 -0.4
v 0 0.5 -0.4
v 0 0.6 -0.4
v 0 0.7 -0.4
v -0.5 0 0.8
v -0.4 0 0.8
v 0.1 0 0.8
v 0.2 0 0.8
v -0.5 0 0.7
v -0.4 0 0.7
v 0.1 0 0.7
v 0.2 0 0.7
v -0.5 0 0
v -0.4 0 0
v 0.1 0 0
v 0.2 0 0
v -0.5 0 -0.1
v -0.4 0 -0.1
v 0.1 0 -0.1
v 0.2 0 -0.1
v -0.4 0.1 0.8
v 0.1 0.1 0.8
v -0.5 0.1 0.7
v -0.4 0.1 0.7
v 0.1 0.1 0.7
v 0.2 0.1 0.7
v -0.5 0.1 0
v -0.4 0.1 0
v 0.1 0.1 0
v 0.2 0.1 0
v -0.4 0.1 -0.1
v 0.1 0.1 -0.1
v -0.3 0.2 0.9
v 0 0.2 0.9
v -0.3 0.2 0.8
v 0 0.2 0.8
v -0.3 0.4 -0.1
v 0 0.4 -0.1
v -0.3 0.4 -0.2
v 0 0.4 -0.2
v -0.3 0.4 -0.3
v 0 0.4 -0.3
v -0.3 0.5 -0.3
v 0 0.5 -0.3
v -0.3 0.5 -0.4
v 0 0.5 -0.4
v -0.3 0.4 0.9
v -0.2 0.4 0.9
v -0.1 0.4 0.9
v 0 0.4 0.9
v -0.3 0.4 0.8
v -0.2 0.4 0.8
v -0.1 0.4 0.8
v 0 0.4 0.8
v -0.3 0.5 -0.1
v 0 0.5 -0.1
v -0.3 0.5 -0.2
v 0 0.5 -0.2
v -0.5 0.6 0.8
v -0.2 0.6 0.8
v -0.1 0.6 0.8
v 0.2 0.6 0.8
v -0.5 0.6 0.7
v -0.4 0.6 0.7
v -0.3 0.6 0.7
v -0.2 0.6 0.7
v -0.1 0.6 0.7
v 0 0.6 0.7
v 0.1 0.6 0.7
v 0.2 0.6 0.7
v -0.5 0.6 0.6
v -0.4 0.6 0.6
v -0.3 0.6 0.6
v 0 0.6 0.6
v 0.1 0.6 0.6
v 0.2 0.6 0.6
v -0.5 0.6 -0.1
v 0.2 0.6 -0.1
v -0.5 0.7 0.7
v -0.4 0.7 0.7
v 0.1 0.7 0.7
v 0.2 0.7 0.7
v -0.5 0.7 0.6
v -0.4 0.7 0.6
v 0.1 0.7 0.6
v 0.2 0.7 0.6
v -0.3 0.7 -0.2
v 0 0.7 -0.2
v -0.3 0.7 -0.4
v 0 0.7 -0.4
v -0.4 0.8 0.7
v -0.3 0.8 0.7
v 0 0.8 0.7
v 0.1 0.8 0.7
v -0.4 0.8 0.6
v -0.3 0.8 0.6
v 0 0.8 0.6
v 0.1 0.8 0.6

# faces
f 5/1/1 2/1/1 1/1/1
f 6/1/1 4/1/1 3/1/1
f 7/1/1 5/1/1 1/1/1
f 7/1/1 6/1/1 5/1/1
f 8/1/1 6/1/1 7/1/1
f 9/2/1 8/2/1 7/2/1
f 10/1/1 6/1/1 8/1/1
f 10/2/1 8/2/1 9/2/1
f 11/3/1 10/3/1 9/3/1
f 12/1/1 6/1/1 10/1/1
f 12/3/1 10/3/1 11/3/1
f 13/1/1 6/1/1 12/1/1
f 14/1/1 4/1/1 6/1/1
f 14/1/1 6/1/1 13/1/1
f 15/1/1 13/1/1 12/1/1
f 16/1/1 13/1/1 15/1/1
f 19/1/1 18/1/1 17/1/1
f 20/1/1 18/1/1 19/1/1
f 23/3/1 22/3/1 21/3/1
f 24/3/1 22/3/1 23/3/1
f 28/1/1 26/1/1 25/1/1
f 29/2/1 27/2/1 26/2/1
f 29/1/1 26/1/1 28/1/1
f 30/2/1 27/2/1 29/2/1
f 32/1/1 31/1/1 30/1/1
f 32/1/1 30/1/1 29/1/1
f 33/1/1 31/1/1 32/1/1
f 34/2/1 33/2/1 32/2/1
f 35/2/1 33/2/1 34/2/1
f 38/2/1 37/2/1 36/2/1
f 39/2/1 37/2/1 38/2/1
f 40/1/1 39/1/1 38/1/1
f 41/1/1 39/1/1 40/1/1
f 46/1/1 43/1/1 42/1/1
f 47/1/1 43/1/1 46/1/1
f 48/1/1 45/1/1 44/1/1
f 49/1/1 45/1/1 48/1/1
f 50/1/2 51/1/2 54/1/2
f 54/1/2 51/1/2 55/1/2
f 52/1/2 53/1/2 56/1/2
f 56/1/2 53/1/2 57/1/2
f 58/2/2 59/2/2 60/2/2
f 60/2/2 59/2/2 61/2/2
f 60/1/2 61/1/2 62/1/2
f 62/1/2 61/1/2 63/1/2
f 64/3/2 65/3/2 66/3/2
f 66/3/2 65/3/2 67/3/2
f 68/1/2 69/1/2 71/1/2
f 69/2/2 70/2/2 72/2/2
f 71/1/2 69/1/2 72/1/2
f 72/2/2 70/2/2 73/2/2
f 73/1/2 74/1/2 75/1/2
f 72/1/2 73/1/2 75/1/2
f 75/1/2 74/1/2 76/1/2
f 75/2/2 76/2/2 77/2/2
f 77/2/2 76/2/2 78/2/2
f 79/1/2 80/1/2 81/1/2
f 81/1/2 80/1/2 82/1/2
f 83/1/2 84/1/2 87/1/2
f 85/1/2 86/1/2 88/1/2
f 83/1/2 87/1/2 89/1/2
f 87/1/2 88/1/2 89/1/2
f 89/1/2 88/1/2 90/1/2
f 89/2/2 90/2/2 91/2/2
f 90/1/2 88/1/2 92/1/2
f 91/2/2 90/2/2 92/2/2
f 91/3/2 92/3/2 93/3/2
f 92/1/2 88/1/2 94/1/2
f 93/3/2 92/3/2 94/3/2
f 94/1/2 88/1/2 95/1/2
f 88/1/2 86/1/2 96/1/2
f 95/1/2 88/1/2 96/1/2
f 94/1/2 95/1/2 97/1/2
f 97/1/2 95/1/2 98/1/2
f 101/3/3 100/3/3 99/3/3
f 102/3/3 100/3/3 101/3/3
f 103/3/3 101/3/3 99/3/3
f 103/4/3 102/4/3 101/4/3
f 104/4/3 102/4/3 103/4/3
f 105/3/3 103/3/3 99/3/3
f 105/3/3 104/3/3 103/3/3
f 106/3/3 104/3/3 105/3/3
f 111/1/3 108/1/3 107/1/3
f 112/1/3 108/1/3 111/1/3
f 113/2/3 109/2/3 108/2/3
f 114/3/3 110/3/3 109/3/3
f 114/2/3 109/2/3 113/2/3
f 115/2/3 113/2/3 108/2/3
f 115/1/3 108/1/3 112/1/3
f 116/4/3 114/4/3 113/4/3
f 116/2/3 113/2/3 115/2/3
f 117/3/3 110/3/3 114/3/3
f 117/4/3 114/4/3 116/4/3
f 118/2/3 117/2/3 116/2/3
f 119/3/3 110/3/3 117/3/3
f 119/2/3 117/2/3 118/2/3
f 120/3/3 110/3/3 119/3/3
f 121/1/3 119/1/3 118/1/3
f 121/1/3 120/1/3 119/1/3
f 122/1/3 120/1/3 121/1/3
f 123/1/3 120/1/3 122/1/3
f 124/1/3 115/1/3 112/1/3
f 125/2/3 122/2/3 121/2/3
f 126/3/3 123/3/3 122/3/3
f 126/2/3 122/2/3 125/2/3
f 128/1/3 124/1/3 112/1/3
f 129/2/3 125/2/3 124/2/3
f 129/4/3 126/4/3 125/4/3
f 130/3/3 123/3/3 126/3/3
f 130/4/3 126/4/3 129/4/3
f 131/1/3 128/1/3 127/1/3
f 132/2/3 129/2/3 124/2/3
f 132/1/3 128/1/3 131/1/3
f 132/1/3 124/1/3 128/1/3
f 132/2/3 130/2/3 129/2/3
f 133/3/3 123/3/3 130/3/3
f 133/2/3 130/2/3 132/2/3
f 134/3/3 123/3/3 133/3/3
f 137/1/3 136/1/3 135/1/3
f 138/1/3 136/1/3 137/1/3
f 140/2/3 138/2/3 137/2/3
f 141/1/3 139/1/3 138/1/3
f 141/2/3 138/2/3 140/2/3
f 142/1/3 139/1/3 141/1/3
f 146/2/3 144/2/3 143/2/3
f 147/1/3 145/1/3 144/1/3
f 147/2/3 144/2/3 146/2/3
f 148/1/3 145/1/3 147/1/3
f 149/1/3 147/1/3 146/1/3
f 150/1/3 147/1/3 149/1/3
f 153/1/3 152/1/3 151/1/3
f 154/1/3 152/1/3 153/1/3
f 157/1/3 156/1/3 155/1/3
f 158/1/3 156/1/3 157/1/3
f 162/1/3 160/1/3 159/1/3
f 163/2/3 161/2/3 160/2/3
f 163/1/3 160/1/3 162/1/3
f 164/2/3 161/2/3 163/2/3
f 165/1/4 166/1/4 167/1/4
f 167/1/4 166/1/4 168/1/4
f 169/1/4 170/1/4 171/1/4
f 171/1/4 170/1/4 172/1/4
f 173/1/4 174/1/4 175/1/4
f 175/1/4 174/1/4 176/1/4
f 175/2/4 176/2/4 178/2/4
f 176/1/4 177/1/4 179/1/4
f 178/2/4 176/2/4 179/2/4
f 179/1/4 177/1/4 180/1/4
f 181/2/4 182/2/4 184/2/4
f 182/1/4 183/1/4 185/1/4
f 184/2/4 182/2/4 185/2/4
f 185/1/4 183/1/4 186/1/4
f 184/1/4 185/1/4 187/1/4
f 187/1/4 185/1/4 188/1/4
f 189/1/4 190/1/4 191/1/4
f 191/1/4 190/1/4 192/1/4
f 192/1/4 190/1/4 193/1/4
f 193/1/4 190/1/4 194/1/4
f 192/1/4 193/1/4 195/1/4
f 194/1/4 190/1/4 196/1/4
f 192/1/4 195/1/4 198/1/4
f 195/1/4 196/1/4 198/1/4
f 197/1/4 198/1/4 199/1/4
f 196/1/4 190/1/4 200/1/4
f 199/1/4 198/1/4 200/1/4
f 198/1/4 196/1/4 200/1/4
f 201/2/4 202/2/4 203/2/4
f 203/2/4 202/2/4 204/2/4
f 205/1/4 206/1/4 208/1/4
f 206/2/4 207/2/4 209/2/4
f 208/1/4 206/1/4 209/1/4
f 209/2/4 207/2/4 210/2/4
f 215/1/5 212/1/5 211/1/5
f 216/1/5 212/1/5 215/1/5
f 217/1/5 214/1/5 213/1/5
f 218/1/5 214/1/5 217/1/5
f 223/1/5 220/1/5 219/1/5
f 224/1/5 220/1/5 223/1/5
f 225/1/5 222/1/5 221/1/5
f 226/1/5 222/1/5 225/1/5
f 230/1/5 228/1/5 227/1/5
f 231/1/5 228/1/5 230/1/5
f 233/1/5 230/1/5 229/1/5
f 233/1/5 232/1/5 231/1/5
f 233/1/5 231/1/5 230/1/5
f 234/1/5 232/1/5 233/1/5
f 235/1/5 232/1/5 234/1/5
f 236/1/5 232/1/5 235/1/5
f 237/1/5 235/1/5 234/1/5
f 238/1/5 235/1/5 237/1/5
f 241/3/5 240/3/5 239/3/5
f 242/3/5 240/3/5 241/3/5
f 245/1/5 244/1/5 243/1/5
f 246/1/5 244/1/5 245/1/5
f 247/2/5 246/2/5 245/2/5
f 248/2/5 246/2/5 247/2/5
f 251/1/5 250/1/5 249/1/5
f 252/1/5 250/1/5 251/1/5
f 253/3/6 254/3/6 257/3/6
f 254/4/6 255/4/6 258/4/6
f 257/3/6 254/3/6 258/3/6
f 255/3/6 256/3/6 259/3/6
f 258/4/6 255/4/6 259/4/6
f 259/3/6 256/3/6 260/3/6
f 261/1/6 262/1/6 263/1/6
f 263/1/6 262/1/6 264/1/6
f 265/3/6 266/3/6 269/3/6
f 269/3/6 266/3/6 270/3/6
f 270/3/6 266/3/6 271/3/6
f 266/1/6 267/1/6 272/1/6
f 271/3/6 266/3/6 272/3/6
f 267/3/6 268/3/6 273/3/6
f 272/1/6 267/1/6 273/1/6
f 273/3/6 268/3/6 274/3/6
f 274/3/6 268/3/6 275/3/6
f 275/3/6 268/3/6 276/3/6
f 271/1/6 272/1/6 279/1/6
f 273/1/6 274/1/6 279/1/6
f 272/1/6 273/1/6 279/1/6
f 279/1/6 274/1/6 280/1/6
f 277/1/6 278/1/6 283/1/6
f 281/1/6 282/1/6 283/1/6
f 280/1/6 281/1/6 283/1/6
f 279/1/6 280/1/6 283/1/6
f 278/1/6 279/1/6 283/1/6
f 283/1/6 282/1/6 284/1/6
f 285/1/6 286/1/6 289/1/6
f 289/1/6 286/1/6 290/1/6
f 287/1/6 288/1/6 291/1/6
f 291/1/6 288/1/6 292/1/6
f 293/2/6 294/2/6 295/2/6
f 295/2/6 294/2/6 296/2/6
f 297/1/6 298/1/6 301/1/6
f 301/1/6 298/1/6 302/1/6
f 299/1/6 300/1/6 303/1/6
f 303/1/6 300/1/6 304/1/6
