# MagicaVoxel @ Ephtracy

# group
o 

# material
mtllib bee.mtl
usemtl palette

# normals
vn -1 0 0
vn 1 0 0
vn 0 0 1
vn 0 0 -1
vn 0 -1 0
vn 0 1 0

# texcoords
vt 0.0214844 0.5
vt 0.201172 0.5
vt 0.962891 0.5
vt 0.994141 0.5

# verts
v -0.3 0.3 0.0999999
v -0.3 0.3 -0.4
v -0.3 0.6 0.0999999
v -0.3 0.6 -5.96046e-08
v -0.3 0.6 -0.3
v -0.3 0.6 -0.4
v -0.3 0.7 -5.96046e-08
v -0.3 0.7 -0.3
v -0.2 0 0.2
v -0.2 0 -5.96046e-08
v -0.2 0 -0.2
v -0.2 0 -0.4
v -0.2 0 -0.5
v -0.2 0.1 0.2
v -0.2 0.1 0.0999999
v -0.2 0.2 0.2
v -0.2 0.2 0.0999999
v -0.2 0.3 0.0999999
v -0.2 0.3 -5.96046e-08
v -0.2 0.3 -0.2
v -0.2 0.3 -0.4
v -0.2 0.6 0.2
v -0.2 0.6 0.0999999
v -0.2 0.6 -0.4
v -0.2 0.6 -0.5
v 0.4 0.6 -5.96046e-08
v 0.4 0.6 -0.2
v 0.4 0.6 -0.3
v 0.4 0.7 -5.96046e-08
v 0.4 0.7 -0.3
v -0.2 0.6 -5.96046e-08
v -0.2 0.6 -0.2
v -0.2 0.6 -0.3
v -0.2 0.7 -5.96046e-08
v -0.2 0.7 -0.3
v 0.4 0 0.2
v 0.4 0 -5.96046e-08
v 0.4 0 -0.2
v 0.4 0 -0.4
v 0.4 0 -0.5
v 0.4 0.1 0.2
v 0.4 0.1 0.0999999
v 0.4 0.2 0.2
v 0.4 0.2 0.0999999
v 0.4 0.3 0.0999999
v 0.4 0.3 -5.96046e-08
v 0.4 0.3 -0.2
v 0.4 0.3 -0.4
v 0.4 0.6 0.2
v 0.4 0.6 0.0999999
v 0.4 0.6 -0.4
v 0.4 0.6 -0.5
v 0.5 0.3 0.0999999
v 0.5 0.3 -0.4
v 0.5 0.6 0.0999999
v 0.5 0.6 -5.96046e-08
v 0.5 0.6 -0.3
v 0.5 0.6 -0.4
v 0.5 0.7 -5.96046e-08
v 0.5 0.7 -0.3
v -0.2 0 0.2
v -0.2 0.1 0.2
v -0.2 0.2 0.2
v -0.2 0.6 0.2
v -0.1 0.2 0.2
v -0.1 0.3 0.2
v 2.98023e-08 0.1 0.2
v 2.98023e-08 0.2 0.2
v 2.98023e-08 0.3 0.2
v 0.2 0.1 0.2
v 0.2 0.2 0.2
v 0.2 0.3 0.2
v 0.3 0.2 0.2
v 0.3 0.3 0.2
v 0.4 0 0.2
v 0.4 0.1 0.2
v 0.4 0.2 0.2
v 0.4 0.6 0.2
v -0.3 0.3 0.0999999
v -0.3 0.6 0.0999999
v -0.2 0.3 0.0999999
v -0.2 0.6 0.0999999
v 0.4 0.3 0.0999999
v 0.4 0.6 0.0999999
v 0.5 0.3 0.0999999
v 0.5 0.6 0.0999999
v -0.3 0.6 -5.96046e-08
v -0.3 0.7 -5.96046e-08
v -0.2 0.6 -5.96046e-08
v -0.2 0.7 -5.96046e-08
v 0.4 0.6 -5.96046e-08
v 0.4 0.7 -5.96046e-08
v 0.5 0.6 -5.96046e-08
v 0.5 0.7 -5.96046e-08
v -0.3 0.6 -0.3
v -0.3 0.7 -0.3
v -0.2 0.6 -0.3
v -0.2 0.7 -0.3
v 0.4 0.6 -0.3
v 0.4 0.7 -0.3
v 0.5 0.6 -0.3
v 0.5 0.7 -0.3
v -0.3 0.3 -0.4
v -0.3 0.6 -0.4
v -0.2 0.3 -0.4
v -0.2 0.6 -0.4
v 0.4 0.3 -0.4
v 0.4 0.6 -0.4
v 0.5 0.3 -0.4
v 0.5 0.6 -0.4
v -0.2 0 -0.5
v -0.2 0.6 -0.5
v 0.4 0 -0.5
v 0.4 0.6 -0.5
v -0.2 0 0.2
v 0.4 0 0.2
v -0.2 0 -5.96046e-08
v 0.4 0 -5.96046e-08
v -0.2 0 -0.2
v 0.4 0 -0.2
v -0.2 0 -0.4
v 0.4 0 -0.4
v -0.2 0 -0.5
v 0.4 0 -0.5
v -0.3 0.3 0.0999999
v -0.2 0.3 0.0999999
v 0.4 0.3 0.0999999
v 0.5 0.3 0.0999999
v -0.2 0.3 -5.96046e-08
v 0.4 0.3 -5.96046e-08
v -0.2 0.3 -0.2
v 0.4 0.3 -0.2
v -0.3 0.3 -0.4
v -0.2 0.3 -0.4
v 0.4 0.3 -0.4
v 0.5 0.3 -0.4
v -0.2 0.6 0.2
v 0.4 0.6 0.2
v -0.3 0.6 0.0999999
v -0.2 0.6 0.0999999
v 0.4 0.6 0.0999999
v 0.5 0.6 0.0999999
v -0.3 0.6 -5.96046e-08
v -0.2 0.6 -5.96046e-08
v 0.4 0.6 -5.96046e-08
v 0.5 0.6 -5.96046e-08
v -0.2 0.6 -0.2
v 0.4 0.6 -0.2
v -0.3 0.6 -0.3
v -0.2 0.6 -0.3
v 0.4 0.6 -0.3
v 0.5 0.6 -0.3
v -0.3 0.6 -0.4
v -0.2 0.6 -0.4
v 0.4 0.6 -0.4
v 0.5 0.6 -0.4
v -0.2 0.6 -0.5
v 0.4 0.6 -0.5
v -0.3 0.7 -5.96046e-08
v -0.2 0.7 -5.96046e-08
v 0.4 0.7 -5.96046e-08
v 0.5 0.7 -5.96046e-08
v -0.3 0.7 -0.3
v -0.2 0.7 -0.3
v 0.4 0.7 -0.3
v 0.5 0.7 -0.3

# faces
f 3/3/1 2/3/1 1/3/1
f 4/3/1 2/3/1 3/3/1
f 5/3/1 2/3/1 4/3/1
f 6/3/1 2/3/1 5/3/1
f 7/3/1 5/3/1 4/3/1
f 8/3/1 5/3/1 7/3/1
f 14/1/1 10/1/1 9/1/1
f 15/1/1 10/1/1 14/1/1
f 16/2/1 15/2/1 14/2/1
f 17/1/1 10/1/1 15/1/1
f 17/2/1 15/2/1 16/2/1
f 18/1/1 17/1/1 16/1/1
f 18/1/1 10/1/1 17/1/1
f 19/4/1 11/4/1 10/4/1
f 19/1/1 10/1/1 18/1/1
f 20/1/1 12/1/1 11/1/1
f 20/4/1 11/4/1 19/4/1
f 21/4/1 13/4/1 12/4/1
f 21/1/1 12/1/1 20/1/1
f 22/1/1 18/1/1 16/1/1
f 23/1/1 18/1/1 22/1/1
f 24/4/1 13/4/1 21/4/1
f 25/4/1 13/4/1 24/4/1
f 29/3/1 27/3/1 26/3/1
f 29/3/1 28/3/1 27/3/1
f 30/3/1 28/3/1 29/3/1
f 31/3/2 32/3/2 34/3/2
f 32/3/2 33/3/2 34/3/2
f 34/3/2 33/3/2 35/3/2
f 36/1/2 37/1/2 41/1/2
f 41/1/2 37/1/2 42/1/2
f 41/2/2 42/2/2 43/2/2
f 42/1/2 37/1/2 44/1/2
f 43/2/2 42/2/2 44/2/2
f 43/1/2 44/1/2 45/1/2
f 44/1/2 37/1/2 45/1/2
f 37/4/2 38/4/2 46/4/2
f 45/1/2 37/1/2 46/1/2
f 38/1/2 39/1/2 47/1/2
f 46/4/2 38/4/2 47/4/2
f 39/4/2 40/4/2 48/4/2
f 47/1/2 39/1/2 48/1/2
f 43/1/2 45/1/2 49/1/2
f 49/1/2 45/1/2 50/1/2
f 48/4/2 40/4/2 51/4/2
f 51/4/2 40/4/2 52/4/2
f 53/3/2 54/3/2 55/3/2
f 55/3/2 54/3/2 56/3/2
f 56/3/2 54/3/2 57/3/2
f 57/3/2 54/3/2 58/3/2
f 56/3/2 57/3/2 59/3/2
f 59/3/2 57/3/2 60/3/2
f 65/2/3 63/2/3 62/2/3
f 65/1/3 64/1/3 63/1/3
f 66/1/3 64/1/3 65/1/3
f 67/1/3 62/1/3 61/1/3
f 67/2/3 65/2/3 62/2/3
f 68/4/3 66/4/3 65/4/3
f 68/2/3 65/2/3 67/2/3
f 69/1/3 64/1/3 66/1/3
f 69/4/3 66/4/3 68/4/3
f 70/1/3 68/1/3 67/1/3
f 70/1/3 67/1/3 61/1/3
f 70/1/3 69/1/3 68/1/3
f 71/1/3 69/1/3 70/1/3
f 72/1/3 64/1/3 69/1/3
f 72/1/3 69/1/3 71/1/3
f 73/2/3 71/2/3 70/2/3
f 73/4/3 72/4/3 71/4/3
f 74/1/3 64/1/3 72/1/3
f 74/4/3 72/4/3 73/4/3
f 75/1/3 70/1/3 61/1/3
f 76/2/3 73/2/3 70/2/3
f 76/1/3 70/1/3 75/1/3
f 77/1/3 74/1/3 73/1/3
f 77/2/3 73/2/3 76/2/3
f 78/1/3 64/1/3 74/1/3
f 78/1/3 74/1/3 77/1/3
f 81/3/3 80/3/3 79/3/3
f 82/3/3 80/3/3 81/3/3
f 85/3/3 84/3/3 83/3/3
f 86/3/3 84/3/3 85/3/3
f 89/3/3 88/3/3 87/3/3
f 90/3/3 88/3/3 89/3/3
f 93/3/3 92/3/3 91/3/3
f 94/3/3 92/3/3 93/3/3
f 95/3/4 96/3/4 97/3/4
f 97/3/4 96/3/4 98/3/4
f 99/3/4 100/3/4 101/3/4
f 101/3/4 100/3/4 102/3/4
f 103/3/4 104/3/4 105/3/4
f 105/3/4 104/3/4 106/3/4
f 107/3/4 108/3/4 109/3/4
f 109/3/4 108/3/4 110/3/4
f 111/4/4 112/4/4 113/4/4
f 113/4/4 112/4/4 114/4/4
f 117/1/5 116/1/5 115/1/5
f 118/1/5 116/1/5 117/1/5
f 119/4/5 118/4/5 117/4/5
f 120/4/5 118/4/5 119/4/5
f 121/1/5 120/1/5 119/1/5
f 122/1/5 120/1/5 121/1/5
f 123/4/5 122/4/5 121/4/5
f 124/4/5 122/4/5 123/4/5
f 129/3/5 126/3/5 125/3/5
f 130/3/5 128/3/5 127/3/5
f 131/3/5 129/3/5 125/3/5
f 132/3/5 128/3/5 130/3/5
f 133/3/5 131/3/5 125/3/5
f 134/3/5 131/3/5 133/3/5
f 135/3/5 128/3/5 132/3/5
f 136/3/5 128/3/5 135/3/5
f 137/1/6 138/1/6 140/1/6
f 140/1/6 138/1/6 141/1/6
f 139/3/6 140/3/6 143/3/6
f 140/1/6 141/1/6 144/1/6
f 143/3/6 140/3/6 144/3/6
f 141/3/6 142/3/6 145/3/6
f 144/1/6 141/1/6 145/1/6
f 145/3/6 142/3/6 146/3/6
f 144/4/6 145/4/6 147/4/6
f 147/4/6 145/4/6 148/4/6
f 147/1/6 148/1/6 150/1/6
f 150/1/6 148/1/6 151/1/6
f 149/3/6 150/3/6 153/3/6
f 150/1/6 151/1/6 154/1/6
f 153/3/6 150/3/6 154/3/6
f 151/3/6 152/3/6 155/3/6
f 154/1/6 151/1/6 155/1/6
f 155/3/6 152/3/6 156/3/6
f 154/4/6 155/4/6 157/4/6
f 157/4/6 155/4/6 158/4/6
f 159/3/6 160/3/6 163/3/6
f 163/3/6 160/3/6 164/3/6
f 161/3/6 162/3/6 165/3/6
f 165/3/6 162/3/6 166/3/6
